<svg width="136" height="290" viewBox="0 0 136 290" fill="none" xmlns="http://www.w3.org/2000/svg">
<g filter="url(#filter0_i_1_2)">
<path d="M108.798 56.2761C108.798 56.2761 109.106 52.559 110.309 50.6107C111.461 48.745 114.463 46.8338 114.463 46.8338C114.463 46.8338 116.936 45.7365 118.618 45.7007C120.442 45.6619 123.15 46.8338 123.15 46.8338L126.172 49.0999C126.172 49.0999 128.82 51.3743 129.949 53.2546C131.077 55.1348 131.208 56.9056 131.837 58.5423C132.467 60.1789 132.97 63.83 132.97 63.83C132.97 64.4343 133.726 69.4954 133.726 71.7615C133.726 74.0277 134.341 77.568 133.726 81.2038C133.29 83.7809 132.652 85.1412 131.837 87.6246C131.154 89.7081 131.247 91.1455 129.949 92.9123C128.638 94.6951 127.548 95.7203 125.416 96.3116C123.853 96.7451 122.873 96.4982 121.262 96.3116C119.449 96.1017 118.443 95.8039 116.729 95.1785C114.87 94.5002 113.937 93.8558 112.197 92.9123C109.929 91.6822 108.421 91.2697 106.532 89.5131C104.911 88.0068 103.132 84.9808 103.132 84.9808C103.132 84.9808 101.818 82.7497 101.244 81.2038C100.559 79.3592 100.111 76.2938 100.111 76.2938" stroke="#13A3FF" stroke-width="2"/>
<path d="M102.755 12.8414C102.755 12.8414 99.0489 9.09451 95.9562 8.30906C93.6689 7.72814 92.2294 7.8571 89.9131 8.30906C88.5215 8.5806 83.3286 11.5174 82.3593 12.086C80.0231 13.1712 78.6115 13.5606 76.3162 14.7298C73.0702 16.3835 71.4976 17.7476 68.3846 19.6399C66.1798 20.9801 64.6976 21.3828 62.7192 23.0391C60.6339 24.785 59.7793 26.122 58.1869 28.3268C57.0609 29.8859 55.5431 32.4814 55.5431 32.4814C55.5431 32.4814 52.7467 35.6752 51.7661 38.1468C50.9874 40.1098 50.6331 43.4345 50.6331 43.4345V45.7007C50.6331 45.7007 50.5072 47.3198 50.6331 48.3445C50.8835 50.3836 51.3321 51.6242 51.7661 53.6322C52.1103 55.2246 52.6015 55.8074 52.8992 57.4092C53.2658 59.3816 53.5637 60.5002 54.41 62.3192C54.41 62.3192 55.5833 65.6229 57.0538 67.2292C58.4902 68.7982 61.5862 70.2507 61.5862 70.2507C61.5862 70.2507 64.2726 71.6201 66.1185 72.1392C68.408 72.7831 72.1616 72.8946 72.1616 72.8946C72.1616 72.8946 75.0248 73.4837 76.6939 72.8946C78.2797 72.3349 78.8878 71.4235 80.0931 70.2507C81.4469 68.9335 82.3492 68.2006 83.1147 66.4738C83.9009 64.7002 83.6991 63.4963 83.8701 61.5638C84.104 58.9192 83.8701 54.7653 83.8701 54.7653C83.8701 54.7653 83.442 51.9504 83.8701 50.233C84.3656 48.2447 85.129 46.4561 86.5139 45.7007C87.8988 44.9453 88.4024 44.1899 90.2908 43.4345C90.2908 43.4345 92.1296 42.7038 94.8232 43.4345C97.5167 44.1653 98.6001 47.5892 98.6001 47.5892C98.6001 47.5892 98.9551 49.4818 98.6001 51.3661C98.341 52.7412 97.8175 53.4106 97.467 54.7653C97.0176 56.5025 96.7116 59.2976 96.7116 59.2976C96.7116 59.2976 95.8489 61.8067 95.9562 63.4523C96.0354 64.666 96.4418 65.2878 96.7116 66.4738C97.0453 67.9405 96.7387 68.9346 97.467 70.2507C98.3816 71.9034 99.5117 72.5191 101.244 73.2723C102.756 73.9299 103.75 74.0566 105.399 74.0277C106.903 74.0013 109.175 73.2723 109.175 73.2723C109.175 73.2723 112.097 72.4237 113.708 71.3838C115.025 70.5335 116.729 68.74 116.729 68.74C116.729 68.74 118.267 67.2446 118.996 66.0961C120.471 63.769 120.884 59.2976 120.884 59.2976" stroke="#FEFCFE" stroke-width="2"/>
<path d="M68.3846 43.7368C68.3846 43.7368 71.1988 38.7999 73.6723 36.183C76.125 33.5881 77.7795 32.3424 80.8485 30.5176C84.1448 28.5576 86.2694 27.9364 89.9131 26.7406C94.367 25.279 97.9134 26.9642 101.622 24.0968C103.955 22.2923 104.93 20.7376 106.154 18.0537C108 14.0077 107.665 7.85597 107.665 7.85597C108.042 4.83442 110.686 3.70134 110.686 3.70134C110.686 3.70134 113.143 2.5058 114.841 2.19057C116.726 1.84046 117.888 1.73782 119.751 2.19057C121.163 2.53358 123.15 3.70134 123.15 3.70134L126.927 6.72289C126.927 6.72289 129.689 9.29919 131.082 11.2552C132.536 13.2979 133.461 14.4967 134.103 16.9206C134.821 19.6297 134.103 21.2943 134.103 24.0968C134.103 28.2267 134.608 30.5732 134.103 34.6722C133.753 37.5146 133.987 39.3471 132.592 41.8484C131.525 43.7635 130.878 45.2592 128.816 46.003C127.006 46.6553 125.688 46.3472 123.906 45.6253C121.873 44.8022 120.824 43.7607 119.751 41.8484C118.928 40.3816 118.966 39.339 118.618 37.6937C117.365 31.7774 118.618 22.2083 118.618 22.2083" stroke="#13A3FF" stroke-width="2"/>
<path d="M47.7472 51.9643C47.7472 51.9643 45.3594 51.4682 43.9703 51.9643C42.9687 52.322 42.4305 52.698 41.7042 53.475C40.8032 54.4388 40.1934 56.4966 40.1934 56.4966L39.0603 60.6512C39.0603 60.6512 38.4308 63.3935 38.3049 65.1835C38.2118 66.5077 38.5085 67.271 38.3049 68.5828C38.1403 69.6439 38.0337 70.2682 37.5495 71.2266C36.9364 72.4404 36.1357 72.8108 35.2834 73.8705C34.3589 75.0198 34.1503 76.0107 33.0172 76.892C31.8841 77.7733 29.2403 79.9136 29.2403 79.9136C28.9381 80.2157 27.6036 81.802 26.9741 82.5574C26.3446 83.3128 26.2187 85.579 26.2187 85.579C26.2187 85.579 25.9133 88.3678 26.2187 90.1113C26.404 91.169 26.4129 91.8396 26.9741 92.7551C27.7449 94.0127 28.6591 94.3975 29.9957 95.0213C31.8859 95.9034 33.254 96.2591 35.2834 95.7767C36.9568 95.3789 37.7753 94.654 39.0603 93.5105C40.3166 92.3925 40.9551 91.617 41.7042 90.1113C42.5167 88.4778 42.8372 85.579 42.8372 85.579C42.8372 85.579 43.3083 82.7467 43.9703 81.0466C44.6409 79.3245 46.2365 76.892 46.2365 76.892C46.2365 76.892 47.6304 74.411 48.8803 73.1151C50.2731 71.6711 53.035 70.0935 53.035 70.0935" stroke="#13A3FF" stroke-width="2"/>
<path d="M2.28832 158.631L1.91063 163.919C1.91063 163.919 1.77371 167.829 3.4214 169.206C4.49497 170.104 6.82064 170.339 6.82064 170.339C6.82064 170.339 9.01634 171.037 10.2199 171.85C12.1287 173.14 13.9968 176.383 13.9968 176.383C13.9968 176.383 15.095 179.141 16.6407 179.404C17.6992 179.584 19.2845 178.649 19.2845 178.649C19.2845 178.649 21.6145 178.363 23.0614 178.649C27.0531 179.438 26.9507 184.057 30.6153 185.825C32.4222 186.697 33.5678 187.775 35.5253 187.336C36.6857 187.075 38.1692 185.825 38.1692 185.825L40.0576 182.426L42.7015 177.516L46.8561 172.983L50.633 169.584C50.633 169.584 53.6546 168.073 56.6761 167.696C59.6977 167.318 89.9131 167.696 89.9131 167.696C89.9131 167.696 92.1045 167.881 92.9347 168.829C93.736 169.744 93.6658 170.634 93.6901 171.85C93.7349 174.096 91.2855 174.896 91.4239 177.138C91.4901 178.21 92.1793 179.782 92.1793 179.782C92.1793 179.782 93.7717 182.126 95.2009 183.181C96.6349 184.239 97.5858 184.859 99.3555 185.069C100.682 185.227 102.755 184.692 102.755 184.692C102.755 184.692 106.811 183.376 109.175 182.048C111.928 180.502 113.281 179.283 115.596 177.138C117.51 175.364 118.477 174.248 120.129 172.228C122.071 169.852 123.207 168.51 124.661 165.807C125.725 163.829 126.329 162.685 126.927 160.519C127.444 158.649 127.682 155.609 127.682 155.609C127.682 155.609 128.436 150.23 127.682 146.922C127.153 144.599 125.416 141.257 125.416 141.257C125.416 141.257 123.582 138.289 122.017 136.725C121.318 136.026 120.736 135.468 120.129 134.977C119.376 134.368 118.584 133.864 117.485 133.326C115.428 132.318 111.819 131.815 111.819 131.815L103.888 129.926C101.873 129.549 97.7692 128.718 97.467 128.416C97.1649 128.113 94.0678 127.282 92.557 126.905C91.0462 126.527 90.8299 125.893 89.9131 125.016C88.2864 123.46 88.2387 121.91 86.8916 120.106C85.3303 118.015 82.3593 115.196 82.3593 115.196L78.96 111.042L76.6939 106.509L74.4277 99.7108L72.9169 96.3116C72.9169 96.3116 71.8918 94.3814 71.0285 93.29C70.1226 92.1449 69.5696 91.4994 68.3846 90.6462C66.9383 89.6048 66.0042 88.9264 64.23 88.7577C63.0462 88.6452 62.2971 88.6568 61.2085 89.1354C60.1539 89.599 59.8712 90.3425 58.9423 91.0239C57.5553 92.0413 56.6514 92.4237 55.1654 93.29C54.138 93.889 52.5215 94.8008 52.5215 94.8008C52.5215 94.8008 50.2716 95.8735 48.7446 96.3116C47.0198 96.8064 44.2123 97.067 44.2123 97.067" stroke="#FEFCFE" stroke-width="2"/>
<path d="M123.853 133.326C123.853 133.326 129.668 125.755 130.651 123.505C131.212 122.223 131.472 121.47 131.784 120.106C132.509 116.943 131.784 111.797 131.784 111.797C131.784 111.797 130.693 108.424 129.518 106.509C128.422 104.722 126.119 102.355 126.119 102.355L122.72 97.8224M79.6627 152.21L83.2507 145.601L86.8388 138.991L90.6158 131.059L90.9935 129.549M95.9035 167.696C95.9035 167.696 99.249 164.26 100.813 161.653C103.213 157.653 104.59 150.322 104.59 150.322M70.598 140.879L64.5549 152.21C63.2274 154.423 62.4832 155.663 61.1557 157.876L58.5118 164.296M29.4295 171.85L27.541 171.473C25.7784 170.591 21.8756 167.696 21.8756 167.696C21.8756 167.696 18.6662 165.807 18.0987 164.296C17.5311 162.786 17.8238 161.513 18.0987 159.764C18.3378 158.243 18.1429 157.076 19.2317 155.987C20.3206 154.898 21.472 154.954 23.0087 154.854C24.9724 154.727 26.1564 155.111 27.9187 155.987C29.4247 156.736 31.3179 158.631 31.3179 158.631L36.2279 162.03L41.8933 165.052L47.5587 167.696" stroke="#13A3FF" stroke-width="2"/>
<path d="M50.9929 151.848L52.1343 146.197L54.0368 140.168L55.5587 134.894L56.7001 129.242L57.4611 122.084C57.4611 122.084 58.2444 117.387 57.4611 114.548C56.9879 112.833 56.8105 111.678 55.5587 110.404C54.4921 109.318 53.5901 108.986 52.1343 108.52C50.6786 108.054 49.0745 108.108 47.1881 108.52C45.9483 108.791 44.1442 109.65 44.1442 109.65M21.6957 140.545C22.6061 142.239 25.1201 142.806 25.1201 142.806L28.5444 143.559C28.5444 143.559 31.0865 143.635 32.3492 142.806C34.0105 141.715 34.6321 138.285 34.6321 138.285L35.7736 133.763C36.0708 131.556 36.2374 130.319 36.5346 128.112C36.5346 128.112 36.6725 124.263 37.676 122.084C38.3428 120.636 39.2265 120.109 39.9589 118.693C40.7514 117.16 41.0297 116.212 41.4808 114.548V111.534V107.39C41.4808 107.39 40.6344 105.732 39.9589 104.752C38.8316 103.118 36.5346 100.985 36.5346 100.985C36.5346 100.985 34.846 99.3272 33.4907 98.7241C32.2411 98.1681 31.4251 98.1438 30.0663 97.9706C28.1505 97.7264 27.0462 97.8256 25.1201 97.9706C23.1713 98.1173 21.9485 97.9136 20.1738 98.7241C18.8245 99.3404 18.2226 99.9877 17.1299 100.985C15.9684 102.045 15.3092 102.676 14.4666 103.999C13.6858 105.225 12.9446 107.39 12.9446 107.39C12.9446 107.39 12.3245 109.895 12.1837 111.534C12.0577 113 12.1837 115.302 12.1837 115.302V120.2V124.721C12.1837 124.721 12.6282 127.983 12.1837 129.996C11.8417 131.544 10.6617 133.763 10.6617 133.763L7.99835 141.299L5.33497 147.704L3.05207 154.109L2.28831 158.631M21.6957 140.545C20.4763 138.277 21.8623 136.265 22.4567 133.763C23.051 131.262 23.9786 127.358 23.9786 127.358L24.7396 122.46M21.6957 140.545C21.6957 140.545 20.435 142.325 19.7933 143.559C19.0608 144.968 18.995 145.914 18.2714 147.327C17.3025 149.22 15.2275 151.848 15.2275 151.848L14.4666 153.355" stroke="#13A3FF" stroke-width="2"/>
<path d="M91.8016 182.803C91.8016 182.803 88.3492 183.042 86.1362 183.181C83.6294 183.339 82.227 183.525 79.7154 183.559C78.978 183.569 78.5644 183.569 77.827 183.559M56.2984 184.314C56.2984 184.314 59.7373 183.715 61.9638 183.559C64.4652 183.383 68.3846 183.559 68.3846 183.559C68.3846 183.559 72.2979 183.559 74.8054 183.559C75.9854 183.559 76.647 183.559 77.827 183.559M77.827 183.559C77.827 185.181 77.827 187.713 77.827 187.713C77.827 187.713 77.6159 189.574 77.827 190.735C77.9938 191.653 78.4369 192.08 78.5823 193.001C78.7204 193.875 78.6305 194.384 78.5823 195.267C78.4846 197.059 77.731 198.008 77.827 199.8C77.8997 201.157 78.5096 201.841 78.5823 203.199C78.606 203.641 78.5823 204.332 78.5823 204.332" stroke="#13A3FF" stroke-width="2"/>
<path d="M36.2807 187.713L38.5469 193.001L40.0576 198.289L41.9461 204.332L43.8346 209.62L47.6115 218.684" stroke="#13A3FF"/>
<path d="M54.7877 199.044L57.0538 204.332L58.5646 208.864L60.8308 213.396M60.8308 213.396C60.8308 213.396 61.1985 214.592 61.5862 215.285C62.5546 217.017 65.3631 218.684 65.3631 218.684C65.3631 218.684 67.229 219.798 68.3846 220.573C69.4384 221.279 69.8778 221.927 71.0285 222.461C72.0023 222.914 72.6099 223.061 73.6723 223.217C74.8398 223.388 76.6939 223.217 76.6939 223.217C78.1689 223.217 78.9958 223.217 80.4708 223.217C81.9458 223.217 82.3593 222.461 82.3593 222.461C83.5393 221.724 84.2008 221.31 85.3808 220.573C85.3808 220.573 88.0926 217.96 89.5355 216.04M60.8308 213.396V216.796V220.573V224.727C60.8308 224.727 60.7617 227.382 60.0754 228.882C59.5474 230.036 59.1033 230.648 58.1869 231.526C57.1819 232.488 55.1654 233.414 55.1654 233.414C55.1654 233.414 52.7344 234.828 51.0107 234.925C49.5089 235.01 47.2338 234.17 47.2338 234.17L41.9461 232.281C41.9461 232.281 39.496 231.11 38.1692 230.015C36.7992 228.885 35.1476 226.616 35.1476 226.616C35.1476 226.616 32.8819 224.824 32.1261 223.217C31.486 221.855 31.617 220.923 31.3707 219.44C30.8852 216.515 31.319 214.766 30.6153 211.886C30.0948 209.756 29.4406 208.671 28.7268 206.598C28.1196 204.834 28.0148 203.752 27.2161 202.066C26.3928 200.328 25.8115 199.382 24.5722 197.911C23.2935 196.394 22.2703 195.839 20.7953 194.512M89.5355 216.04C90.6911 214.503 91.2674 213.579 92.1793 211.886C93.0244 210.317 94.0678 207.731 94.0678 207.731C94.0678 207.731 95.0911 205.466 95.5785 203.954C96.1824 202.081 96.3312 200.975 96.7116 199.044C97.0585 197.284 97.3141 196.3 97.467 194.512C97.6304 192.601 97.467 189.602 97.467 189.602V186.58M89.5355 216.04L92.9347 216.418H96.7116L99.7332 216.04L102.755 214.53L105.776 212.641L111.819 205.843L114.841 201.688L116.729 197.156M20.7953 194.512C19.8459 194.032 19.337 193.693 18.5291 193.001C17.4963 192.116 16.263 190.357 16.263 190.357C16.263 190.357 13.9972 188.565 13.2414 186.958C12.6013 185.597 12.486 183.181 12.486 183.181V180.159C12.486 180.159 13.1998 177.462 12.486 176.005C11.64 174.278 10.1728 173.916 8.33141 173.361C7.19277 173.018 6.19115 172.606 5.30986 172.983C4.42858 173.361 2.59047 174.192 2.28832 174.494C1.98616 174.796 1.41558 175.806 1.15524 176.76C0.805953 178.041 1.15524 179.253 1.15524 180.159C1.15524 181.293 1.02746 182.467 1.15524 183.936C1.33819 186.04 1.97365 187.136 2.28832 189.224C2.48733 190.545 2.66601 192.623 2.66601 192.623C2.66601 194.512 4.05089 195.519 4.55448 196.778C5.05807 198.037 5.76341 198.374 6.82064 199.044C8.24124 199.944 9.29467 200.115 10.9753 200.177C12.1636 200.221 12.9003 200.26 13.9968 199.8C15.5355 199.154 15.705 197.807 17.0184 196.778C18.3722 195.717 19.2219 195.207 20.7953 194.512Z" stroke="#13A3FF" stroke-width="2"/>
<path d="M7.57602 202.821L7.19833 206.598V210.375C7.19833 210.375 6.94762 212.387 7.57602 213.396C8.07511 214.198 9.46449 214.907 9.46449 214.907C10.497 215.645 11.0759 216.058 12.1083 216.796C13.1408 217.533 13.9354 217.322 15.1299 217.551C16.1542 217.748 17.7737 217.929 17.7737 217.929H21.173L20.7953 222.839L20.4176 226.616C20.4176 226.616 19.7466 229.951 20.4176 231.903C20.804 233.028 21.9284 234.547 21.9284 234.547C21.9284 234.547 22.992 236.009 23.8168 236.813C25.106 238.07 27.5938 239.457 27.5938 239.457L31.3707 241.723L34.3922 243.234C34.3922 243.234 36.2582 244.348 37.4138 245.123C38.4675 245.83 39.0547 246.234 40.0576 247.011C40.9682 247.717 42.1042 247.769 42.3238 248.9C42.5504 250.067 41.3715 250.494 40.813 251.543C40.3484 252.417 39.8465 252.834 39.6799 253.81C39.5044 254.838 39.7315 255.463 40.0576 256.454C40.4295 257.583 41.5684 259.097 41.5684 259.097L44.59 261.741L48.7446 265.14L52.8992 267.407L57.0538 269.673L60.4531 271.184L64.9854 272.694C64.9854 272.694 68.3997 273.675 70.6508 273.827C71.8281 273.907 72.5445 274.174 73.6723 273.827C74.8851 273.454 76.3162 271.939 76.3162 271.939L78.96 269.673L82.3593 266.651M82.3593 266.651C82.3593 266.651 84.093 265.149 85.0031 264.007C86.0753 262.662 87.2693 260.23 87.2693 260.23M82.3593 266.651C82.3593 266.651 82.5859 269.199 82.3593 270.806C82.1894 272.01 81.7503 272.62 81.6039 273.827C81.4619 274.999 81.3928 275.688 81.6039 276.849C81.7708 277.767 82.3593 279.115 82.3593 279.115C82.737 279.619 83.8701 281.004 83.8701 281.004C83.8701 281.004 86.5139 282.892 87.647 283.647C87.647 283.647 90.7853 285.26 92.9347 285.914C95.6491 286.739 100.111 287.047 100.111 287.047L109.553 287.802C109.553 287.802 112.811 288.179 114.841 287.802C115.897 287.606 116.579 287.623 117.485 287.047C118.457 286.429 119.033 285.881 119.373 284.781C119.635 283.935 119.684 283.343 119.373 282.514C119.007 281.538 118.287 281.292 117.485 280.626C116.161 279.527 113.708 278.36 113.708 278.36C113.708 278.36 112.209 277.171 111.064 276.849C109.786 276.49 108.42 276.471 106.909 276.471L95.5785 276.849L100.111 271.939L102.755 267.784L104.643 264.007L106.154 260.23L106.909 257.587C106.909 257.587 107.353 255.281 107.665 253.81C107.946 252.479 108.501 251.768 108.42 250.41M108.42 250.41C108.356 249.339 108.083 248.755 107.665 247.767C107.123 246.485 105.776 244.745 105.776 244.745C105.776 244.745 105.203 243.509 104.643 242.857M108.42 250.41L110.309 251.543L112.197 252.677L114.841 254.187L117.485 256.454L120.129 259.475L122.017 262.497L123.906 265.896M104.643 242.857C103.354 241.355 101.961 241.292 100.111 240.59C97.7025 239.677 96.2655 239.028 93.6901 239.08C92.0413 239.113 91.1768 239.676 89.5355 239.835C87.6269 240.02 86.5374 239.69 84.6254 239.835C82.691 239.982 81.565 240.005 79.7154 240.59C77.8288 241.188 76.7452 241.642 75.1831 242.857C74.1952 243.625 73.8277 244.264 72.917 245.123C71.776 246.198 70.399 247.389 69.8954 247.767C69.3918 248.144 68.3091 248.975 68.0069 249.277C67.6292 249.655 65.3631 252.299 64.9854 252.677C64.6077 253.054 63.8523 254.565 63.0969 255.32C62.4926 255.925 62.0897 257.587 61.9638 258.342M104.643 242.857L108.42 241.723C108.42 241.723 110.352 241.224 111.442 240.59C112.617 239.906 113.006 239.151 114.086 238.324C115.353 237.355 116.333 237.162 117.485 236.058C118.549 235.037 118.778 234.145 119.751 233.037C120.576 232.096 122.017 230.77 122.017 230.77" stroke="#13A3FF" stroke-width="2"/>
<path d="M119.751 288.557C119.751 288.557 121.586 288.484 122.772 288.557C123.95 288.63 124.67 288.917 125.794 288.557C126.807 288.233 127.265 287.753 128.06 287.047C128.921 286.282 129.348 285.764 129.949 284.78C130.534 283.822 130.837 283.233 131.082 282.137C131.371 280.841 131.082 278.737 131.082 278.737L130.704 265.14V257.964L130.326 249.277C130.326 249.277 129.701 244.667 129.949 241.723C130.099 239.935 130.72 238.985 130.704 237.191C130.693 236.002 130.977 235.165 130.326 234.17C129.744 233.279 129.025 233.106 128.06 232.659C127.086 232.207 126.324 232.478 125.416 231.903C124.711 231.457 124.234 231.16 123.906 230.393C123.557 229.579 123.714 228.99 123.906 228.127C124.12 227.161 124.431 226.641 125.039 225.86C125.423 225.366 125.746 225.186 126.172 224.727C127.537 223.257 129.193 220.573 129.193 220.573C129.193 220.573 130.023 218.539 130.326 217.173C130.553 216.155 130.704 214.53 130.704 214.53C130.704 214.53 131.97 209.742 132.215 206.598C132.386 204.392 132.215 200.933 132.215 200.933C132.215 200.933 132.288 198.399 132.215 196.778C132.141 195.15 132.282 194.19 131.837 192.623C131.53 191.543 131.118 191.024 130.704 189.979C129.844 187.812 129.892 186.383 128.816 184.314C128.079 182.899 127.643 182.076 126.549 180.915C125.76 180.076 125.282 179.6 124.283 179.026C122.825 178.189 120.129 177.893 120.129 177.893" stroke="#FEFCFE" stroke-width="2"/>
</g>
<defs>
<filter id="filter0_i_1_2" x="-4.19617e-05" y="0.888283" width="135.422" height="292.846" filterUnits="userSpaceOnUse" color-interpolation-filters="sRGB">
<feFlood flood-opacity="0" result="BackgroundImageFix"/>
<feBlend mode="normal" in="SourceGraphic" in2="BackgroundImageFix" result="shape"/>
<feColorMatrix in="SourceAlpha" type="matrix" values="0 0 0 0 0 0 0 0 0 0 0 0 0 0 0 0 0 0 127 0" result="hardAlpha"/>
<feOffset dy="4"/>
<feGaussianBlur stdDeviation="2"/>
<feComposite in2="hardAlpha" operator="arithmetic" k2="-1" k3="1"/>
<feColorMatrix type="matrix" values="0 0 0 0 0 0 0 0 0 0 0 0 0 0 0 0 0 0 0.25 0"/>
<feBlend mode="normal" in2="shape" result="effect1_innerShadow_1_2"/>
</filter>
</defs>
</svg>
