<svg width="180" height="382" viewBox="0 0 180 382" fill="none" xmlns="http://www.w3.org/2000/svg">
<g filter="url(#filter0_i_1_2)">
<path d="M144.5 73C144.5 73 144.907 68.0792 146.5 65.5C148.025 63.0301 152 60.5 152 60.5C152 60.5 155.274 59.0474 157.5 59C159.915 58.9486 163.5 60.5 163.5 60.5L167.5 63.5C167.5 63.5 171.007 66.5109 172.5 69C173.993 71.4891 174.167 73.8333 175 76C175.833 78.1667 176.5 83 176.5 83C176.5 83.8 177.5 90.5 177.5 93.5C177.5 96.5 178.314 101.187 177.5 106C176.923 109.412 176.079 111.212 175 114.5C174.095 117.258 174.219 119.161 172.5 121.5C170.765 123.86 169.322 125.217 166.5 126C164.43 126.574 163.134 126.247 161 126C158.601 125.722 157.269 125.328 155 124.5C152.539 123.602 151.303 122.749 149 121.5C145.997 119.872 144.002 119.325 141.5 117C139.355 115.006 137 111 137 111C137 111 135.26 108.046 134.5 106C133.593 103.558 133 99.5 133 99.5" stroke="#13A3FF" stroke-width="2"/>
<path d="M136.5 15.5C136.5 15.5 131.594 10.5398 127.5 9.5C124.472 8.73097 122.566 8.90168 119.5 9.5C117.658 9.85946 110.783 13.7472 109.5 14.5C106.407 15.9367 104.539 16.4521 101.5 18C97.2029 20.1891 95.121 21.995 91 24.5C88.0812 26.2742 86.119 26.8073 83.5 29C80.7393 31.3113 79.608 33.0812 77.5 36C76.0094 38.0639 74 41.5 74 41.5C74 41.5 70.2981 45.7279 69 49C67.969 51.5987 67.5 56 67.5 56V59C67.5 59 67.3334 61.1434 67.5 62.5C67.8315 65.1994 68.4255 66.8417 69 69.5C69.4556 71.6081 70.1059 72.3796 70.5 74.5C70.9853 77.1111 71.3797 78.592 72.5 81C72.5 81 74.0533 85.3735 76 87.5C77.9016 89.5771 82 91.5 82 91.5C82 91.5 85.5564 93.3127 88 94C91.0309 94.8524 96 95 96 95C96 95 99.7904 95.7798 102 95C104.099 94.259 104.904 93.0525 106.5 91.5C108.292 89.7562 109.487 88.786 110.5 86.5C111.541 84.1521 111.274 82.5583 111.5 80C111.81 76.4989 111.5 71 111.5 71C111.5 71 110.933 67.2736 111.5 65C112.156 62.3679 113.167 60 115 59C116.833 58 117.5 57 120 56C120 56 122.434 55.0327 126 56C129.566 56.9674 131 61.5 131 61.5C131 61.5 131.47 64.0055 131 66.5C130.657 68.3204 129.964 69.2066 129.5 71C128.905 73.2997 128.5 77 128.5 77C128.5 77 127.358 80.3215 127.5 82.5C127.605 84.1068 128.143 84.9299 128.5 86.5C128.942 88.4417 128.536 89.7577 129.5 91.5C130.711 93.6879 132.207 94.5028 134.5 95.5C136.502 96.3705 137.817 96.5383 140 96.5C141.991 96.4651 145 95.5 145 95.5C145 95.5 148.867 94.3766 151 93C152.744 91.8743 155 89.5 155 89.5C155 89.5 157.036 87.5204 158 86C159.953 82.9192 160.5 77 160.5 77" stroke="#FEFCFE" stroke-width="2"/>
<path d="M91 56.4002C91 56.4002 94.7255 49.8645 98 46.4002C101.247 42.9651 103.437 41.316 107.5 38.9002C111.864 36.3055 114.676 35.4832 119.5 33.9002C125.396 31.9652 130.091 34.1961 135 30.4002C138.089 28.0113 139.379 25.9532 141 22.4002C143.443 17.044 143 8.90019 143 8.90019C143.5 4.90019 147 3.40019 147 3.40019C147 3.40019 150.253 1.8175 152.5 1.40019C154.996 0.936695 156.533 0.80082 159 1.40019C160.869 1.85427 163.5 3.40019 163.5 3.40019L168.5 7.40019C168.5 7.40019 172.156 10.8108 174 13.4002C175.925 16.1043 177.15 17.6913 178 20.9002C178.95 24.4866 178 26.6902 178 30.4002C178 35.8675 178.669 38.9739 178 44.4002C177.536 48.163 177.846 50.5889 176 53.9002C174.586 56.4354 173.731 58.4155 171 59.4002C168.605 60.2638 166.86 59.8559 164.5 58.9002C161.81 57.8105 160.42 56.4318 159 53.9002C157.911 51.9585 157.961 50.5782 157.5 48.4002C155.842 40.568 157.5 27.9002 157.5 27.9002" stroke="#13A3FF" stroke-width="2"/>
<path d="M63.6797 67.2919C63.6797 67.2919 60.5186 66.6351 58.6797 67.2919C57.3537 67.7655 56.6412 68.2633 55.6797 69.2919C54.4871 70.5677 53.6797 73.2919 53.6797 73.2919L52.1797 78.7919C52.1797 78.7919 51.3463 82.4223 51.1797 84.7919C51.0564 86.5449 51.4492 87.5553 51.1797 89.2919C50.9617 90.6966 50.8207 91.5231 50.1797 92.7919C49.368 94.3987 48.308 94.8891 47.1797 96.2919C45.9559 97.8134 45.6797 99.1252 44.1797 100.292C42.6797 101.459 39.1797 104.292 39.1797 104.292C38.7797 104.692 37.013 106.792 36.1797 107.792C35.3464 108.792 35.1797 111.792 35.1797 111.792C35.1797 111.792 34.7754 115.484 35.1797 117.792C35.425 119.192 35.4368 120.08 36.1797 121.292C37.2001 122.957 38.4103 123.466 40.1797 124.292C42.6821 125.46 44.4931 125.93 47.1797 125.292C49.3951 124.765 50.4786 123.806 52.1797 122.292C53.8429 120.812 54.6881 119.785 55.6797 117.792C56.7554 115.629 57.1797 111.792 57.1797 111.792C57.1797 111.792 57.8033 108.043 58.6797 105.792C59.5675 103.512 61.6797 100.292 61.6797 100.292C61.6797 100.292 63.5251 97.0074 65.1797 95.2919C67.0234 93.3803 70.6797 91.2919 70.6797 91.2919" stroke="#13A3FF" stroke-width="2"/>
<path d="M3.5 208.5L3 215.5C3 215.5 2.81875 220.677 5 222.5C6.42122 223.688 9.5 224 9.5 224C9.5 224 12.4067 224.923 14 226C16.527 227.708 19 232 19 232C19 232 20.4538 235.651 22.5 236C23.9013 236.239 26 235 26 235C26 235 29.0845 234.621 31 235C36.2843 236.045 36.1487 242.159 41 244.5C43.392 245.654 44.9085 247.081 47.5 246.5C49.0361 246.155 51 244.5 51 244.5L53.5 240L57 233.5L62.5 227.5L67.5 223C67.5 223 71.5 221 75.5 220.5C79.5 220 119.5 220.5 119.5 220.5C119.5 220.5 122.401 220.745 123.5 222C124.561 223.211 124.468 224.39 124.5 226C124.559 228.974 121.317 230.032 121.5 233C121.588 234.419 122.5 236.5 122.5 236.5C122.5 236.5 124.608 239.604 126.5 241C128.398 242.401 129.657 243.221 132 243.5C133.756 243.709 136.5 243 136.5 243C136.5 243 141.87 241.258 145 239.5C148.643 237.454 150.435 235.84 153.5 233C156.034 230.652 157.313 229.175 159.5 226.5C162.072 223.354 163.575 221.578 165.5 218C166.909 215.381 167.708 213.867 168.5 211C169.184 208.524 169.5 204.5 169.5 204.5C169.5 204.5 170.497 197.379 169.5 193C168.8 189.924 166.5 185.5 166.5 185.5C166.5 185.5 164.071 181.571 162 179.5C161.075 178.575 160.304 177.836 159.5 177.186C158.503 176.381 157.456 175.713 156 175C153.278 173.667 148.5 173 148.5 173L138 170.5C135.333 170 129.9 168.9 129.5 168.5C129.1 168.1 125 167 123 166.5C121 166 120.714 165.161 119.5 164C117.346 161.939 117.283 159.888 115.5 157.5C113.433 154.732 109.5 151 109.5 151L105 145.5L102 139.5L99 130.5L97 126C97 126 95.6428 123.445 94.5 122C93.3008 120.484 92.5687 119.629 91 118.5C89.0853 117.121 87.8488 116.223 85.5 116C83.9328 115.851 82.9411 115.866 81.5 116.5C80.1039 117.114 79.7297 118.098 78.5 119C76.6639 120.347 75.4672 120.853 73.5 122C72.14 122.793 70 124 70 124C70 124 67.0215 125.42 65 126C62.7167 126.655 59 127 59 127" stroke="#FEFCFE" stroke-width="2"/>
<path d="M164.43 175C164.43 175 172.128 164.978 173.43 162C174.172 160.303 174.516 159.306 174.93 157.5C175.89 153.313 174.93 146.5 174.93 146.5C174.93 146.5 173.485 142.035 171.93 139.5C170.479 137.134 167.43 134 167.43 134L162.93 128M105.93 200L110.68 191.25L115.43 182.5L120.43 172L120.93 170M127.43 220.5C127.43 220.5 131.859 215.952 133.93 212.5C137.107 207.205 138.93 197.5 138.93 197.5M93.9302 185L85.9302 200C84.1728 202.929 83.1875 204.571 81.4302 207.5L77.9302 216M39.4302 226L36.9302 225.5C34.5968 224.333 29.4302 220.5 29.4302 220.5C29.4302 220.5 25.1815 218 24.4302 216C23.6788 214 24.0663 212.315 24.4302 210C24.7467 207.986 24.4886 206.442 25.9302 205C27.3717 203.558 28.8958 203.632 30.9302 203.5C33.5298 203.332 35.0972 203.841 37.4302 205C39.4239 205.991 41.9302 208.5 41.9302 208.5L48.4302 213L55.9302 217L63.4302 220.5" stroke="#13A3FF" stroke-width="2"/>
<path d="M67.9764 199.521L69.4875 192.039L72.0059 184.059L74.0207 177.076L75.5318 169.594L76.5392 160.118C76.5392 160.118 77.5761 153.9 76.5392 150.142C75.9127 147.872 75.6778 146.343 74.0207 144.656C72.6087 143.218 71.4146 142.778 69.4875 142.162C67.5603 141.545 65.4367 141.617 62.9395 142.162C61.2982 142.52 58.9099 143.658 58.9099 143.658M29.192 184.558C30.3972 186.799 33.7253 187.55 33.7253 187.55L38.2585 188.548C38.2585 188.548 41.6238 188.648 43.2954 187.55C45.4946 186.106 46.3176 181.565 46.3176 181.565L47.8287 175.58C48.2221 172.658 48.4427 171.02 48.8361 168.098C48.8361 168.098 49.0187 163.003 50.3471 160.118C51.2298 158.201 52.3998 157.504 53.3693 155.629C54.4184 153.599 54.7869 152.344 55.3841 150.142V146.152V140.666C55.3841 140.666 54.2636 138.471 53.3693 137.174C51.877 135.01 48.8361 132.186 48.8361 132.186C48.8361 132.186 46.6007 129.992 44.8065 129.194C43.1523 128.458 42.072 128.425 40.2733 128.196C37.737 127.873 36.2751 128.004 33.7253 128.196C31.1455 128.39 29.5266 128.121 27.1773 129.194C25.3911 130.01 24.5943 130.867 23.1477 132.186C21.61 133.59 20.7374 134.425 19.6219 136.177C18.5883 137.799 17.6071 140.666 17.6071 140.666C17.6071 140.666 16.7862 143.982 16.5997 146.152C16.4329 148.093 16.5997 151.14 16.5997 151.14V157.624V163.609C16.5997 163.609 17.1882 167.928 16.5997 170.592C16.147 172.641 14.5849 175.58 14.5849 175.58L11.0591 185.555L7.53324 194.034L4.51108 202.513L3.5 208.5M29.192 184.558C27.5778 181.555 29.4126 178.891 30.1994 175.58C30.9862 172.268 32.2142 167.101 32.2142 167.101L33.2216 160.617M29.192 184.558C29.192 184.558 27.523 186.914 26.6736 188.548C25.7038 190.413 25.6167 191.664 24.6588 193.536C23.3761 196.041 20.6293 199.521 20.6293 199.521L19.6219 201.516" stroke="#13A3FF" stroke-width="2"/>
<path d="M122 240.5C122 240.5 117.43 240.815 114.5 241C111.181 241.209 109.325 241.456 106 241.5C105.024 241.513 104.476 241.513 103.5 241.5M75 242.5C75 242.5 79.5524 241.707 82.5 241.5C85.8113 241.267 91 241.5 91 241.5C91 241.5 96.1805 241.5 99.5 241.5C101.062 241.5 101.938 241.5 103.5 241.5M103.5 241.5C103.5 243.648 103.5 247 103.5 247C103.5 247 103.221 249.463 103.5 251C103.721 252.215 104.307 252.78 104.5 254C104.683 255.157 104.564 255.83 104.5 257C104.371 259.372 103.373 260.628 103.5 263C103.596 264.798 104.404 265.702 104.5 267.5C104.531 268.085 104.5 269 104.5 269" stroke="#13A3FF" stroke-width="2"/>
<path d="M48.5 247L51.5 254L53.5 261L56 269L58.5 276L63.5 288" stroke="#13A3FF"/>
<path d="M73 262L76 269L78 275L81 281M81 281C81 281 81.4868 282.582 82 283.5C83.2821 285.793 87 288 87 288C87 288 89.4702 289.474 91 290.5C92.3949 291.436 92.9767 292.292 94.5 293C95.7892 293.599 96.5935 293.794 98 294C99.5455 294.227 102 294 102 294C103.953 294 105.047 294 107 294C108.953 294 109.5 293 109.5 293C111.062 292.024 111.938 291.476 113.5 290.5C113.5 290.5 117.09 287.041 119 284.5M81 281V285.5V290.5V296C81 296 80.9085 299.515 80 301.5C79.301 303.027 78.7132 303.838 77.5 305C76.1695 306.274 73.5 307.5 73.5 307.5C73.5 307.5 70.2818 309.371 68 309.5C66.0119 309.612 63 308.5 63 308.5L56 306C56 306 52.7565 304.449 51 303C49.1864 301.504 47 298.5 47 298.5C47 298.5 44.0006 296.128 43 294C42.1526 292.198 42.3261 290.964 42 289C41.3572 285.128 41.9316 282.813 41 279C40.311 276.18 39.4448 274.745 38.5 272C37.6961 269.665 37.5573 268.232 36.5 266C35.4101 263.699 34.6405 262.447 33 260.5C31.3072 258.491 29.9526 257.757 28 256M119 284.5C120.53 282.465 121.293 281.242 122.5 279C123.619 276.923 125 273.5 125 273.5C125 273.5 126.355 270.502 127 268.5C127.799 266.021 127.996 264.556 128.5 262C128.959 259.669 129.298 258.367 129.5 256C129.716 253.471 129.5 249.5 129.5 249.5V245.5M119 284.5L123.5 285H128.5L132.5 284.5L136.5 282.5L140.5 280L148.5 271L152.5 265.5L155 259.5M28 256C26.7432 255.365 26.0694 254.916 25 254C23.6327 252.829 22 250.5 22 250.5C22 250.5 19.0006 248.128 18 246C17.1526 244.198 17 241 17 241V237C17 237 17.9449 233.429 17 231.5C15.88 229.214 13.9377 228.734 11.5 228C9.99264 227.546 8.66667 227 7.5 227.5C6.33334 228 3.9 229.1 3.5 229.5C3.1 229.9 2.34465 231.236 2 232.5C1.53761 234.195 2 235.8 2 237C2 238.5 1.83085 240.055 2 242C2.2422 244.785 3.08343 246.235 3.5 249C3.76347 250.748 4 253.5 4 253.5C4 256 5.83334 257.333 6.5 259C7.16667 260.667 8.10042 261.113 9.5 262C11.3806 263.192 12.7752 263.418 15 263.5C16.5732 263.558 17.5484 263.609 19 263C21.037 262.145 21.2613 260.363 23 259C24.7922 257.595 25.9171 256.92 28 256Z" stroke="#13A3FF" stroke-width="2"/>
<path d="M10.5 267L10 272V277C10 277 9.6681 279.664 10.5 281C11.1607 282.061 13 283 13 283C14.3668 283.976 15.1332 284.524 16.5 285.5C17.8668 286.476 18.9186 286.197 20.5 286.5C21.856 286.76 24 287 24 287H28.5L28 293.5L27.5 298.5C27.5 298.5 26.6118 302.915 27.5 305.5C28.0115 306.989 29.5 309 29.5 309C29.5 309 30.908 310.935 32 312C33.7067 313.664 37 315.5 37 315.5L42 318.5L46 320.5C46 320.5 48.4702 321.974 50 323C51.395 323.936 52.1723 324.471 53.5 325.5C54.7054 326.434 56.2093 326.503 56.5 328C56.8 329.545 55.2393 330.11 54.5 331.5C53.8849 332.656 53.2204 333.209 53 334.5C52.7676 335.861 53.0683 336.689 53.5 338C53.9923 339.495 55.5 341.5 55.5 341.5L59.5 345L65 349.5L70.5 352.5L76 355.5L80.5 357.5L86.5 359.5C86.5 359.5 91.0199 360.798 94 361C95.5585 361.106 96.507 361.459 98 361C99.6054 360.506 101.5 358.5 101.5 358.5L105 355.5L109.5 351.5M109.5 351.5C109.5 351.5 111.795 349.512 113 348C114.419 346.219 116 343 116 343M109.5 351.5C109.5 351.5 109.8 354.873 109.5 357C109.275 358.594 108.694 359.402 108.5 361C108.312 362.551 108.221 363.463 108.5 365C108.721 366.215 109.5 368 109.5 368C110 368.667 111.5 370.5 111.5 370.5C111.5 370.5 115 373 116.5 374C116.5 374 120.655 376.135 123.5 377C127.093 378.093 133 378.5 133 378.5L145.5 379.5C145.5 379.5 149.812 379.998 152.5 379.5C153.898 379.241 154.8 379.263 156 378.5C157.287 377.682 158.049 376.957 158.5 375.5C158.846 374.381 158.911 373.597 158.5 372.5C158.015 371.207 157.062 370.882 156 370C154.248 368.545 151 367 151 367C151 367 149.015 365.426 147.5 365C145.808 364.524 144 364.5 142 364.5L127 365L133 358.5L136.5 353L139 348L141 343L142 339.5C142 339.5 142.588 336.448 143 334.5C143.373 332.739 144.107 331.797 144 330M144 330C143.915 328.581 143.554 327.809 143 326.5C142.282 324.804 140.5 322.5 140.5 322.5C140.5 322.5 139.742 320.864 139 320M144 330L146.5 331.5L149 333L152.5 335L156 338L159.5 342L162 346L164.5 350.5M139 320C137.293 318.012 135.449 317.929 133 317C129.812 315.79 127.909 314.932 124.5 315C122.317 315.044 121.173 315.789 119 316C116.473 316.245 115.031 315.808 112.5 316C109.939 316.195 108.449 316.225 106 317C103.502 317.791 102.068 318.392 100 320C98.6922 321.017 98.2057 321.864 97 323C95.4896 324.424 93.6667 326 93 326.5C92.3333 327 90.9 328.1 90.5 328.5C90 329 87 332.5 86.5 333C86 333.5 85 335.5 84 336.5C83.2 337.3 82.6667 339.5 82.5 340.5M139 320L144 318.5C144 318.5 146.558 317.839 148 317C149.556 316.095 150.07 315.094 151.5 314C153.177 312.717 154.475 312.462 156 311C157.409 309.649 157.712 308.468 159 307C160.093 305.755 162 304 162 304" stroke="#13A3FF" stroke-width="2"/>
<path d="M159 380.5C159 380.5 161.429 380.403 163 380.5C164.559 380.597 165.512 380.976 167 380.5C168.341 380.071 168.947 379.435 170 378.5C171.14 377.487 171.706 376.802 172.5 375.5C173.275 374.231 173.676 373.451 174 372C174.383 370.285 174 367.5 174 367.5L173.5 349.5V340L173 328.5C173 328.5 172.172 322.396 172.5 318.5C172.699 316.133 173.522 314.875 173.5 312.5C173.486 310.926 173.862 309.818 173 308.5C172.229 307.322 171.278 307.092 170 306.5C168.71 305.902 167.701 306.26 166.5 305.5C165.567 304.909 164.935 304.515 164.5 303.5C164.038 302.423 164.246 301.644 164.5 300.5C164.784 299.221 165.196 298.534 166 297.5C166.509 296.846 166.936 296.607 167.5 296C169.307 294.054 171.5 290.5 171.5 290.5C171.5 290.5 172.598 287.808 173 286C173.3 284.652 173.5 282.5 173.5 282.5C173.5 282.5 175.177 276.162 175.5 272C175.727 269.08 175.5 264.5 175.5 264.5C175.5 264.5 175.597 261.146 175.5 259C175.402 256.845 175.59 255.575 175 253.5C174.593 252.07 174.049 251.382 173.5 250C172.361 247.13 172.426 245.238 171 242.5C170.025 240.627 169.448 239.538 168 238C166.954 236.89 166.323 236.259 165 235.5C163.069 234.392 159.5 234 159.5 234" stroke="#FEFCFE" stroke-width="2"/>
</g>
<defs>
<filter id="filter0_i_1_2" x="0.794456" y="1.52588e-05" width="178.628" height="385.735" filterUnits="userSpaceOnUse" color-interpolation-filters="sRGB">
<feFlood flood-opacity="0" result="BackgroundImageFix"/>
<feBlend mode="normal" in="SourceGraphic" in2="BackgroundImageFix" result="shape"/>
<feColorMatrix in="SourceAlpha" type="matrix" values="0 0 0 0 0 0 0 0 0 0 0 0 0 0 0 0 0 0 127 0" result="hardAlpha"/>
<feOffset dy="4"/>
<feGaussianBlur stdDeviation="2"/>
<feComposite in2="hardAlpha" operator="arithmetic" k2="-1" k3="1"/>
<feColorMatrix type="matrix" values="0 0 0 0 0 0 0 0 0 0 0 0 0 0 0 0 0 0 0.25 0"/>
<feBlend mode="normal" in2="shape" result="effect1_innerShadow_1_2"/>
</filter>
</defs>
</svg>
