<svg width="124" height="99" viewBox="0 0 124 99" fill="none" xmlns="http://www.w3.org/2000/svg">
<path d="M17.5 36.5H24.5V39.5H31V34" stroke="#BCF3FE" stroke-width="0.5"/>
<path d="M31 36.5H46.5" stroke="#BCF3FE" stroke-width="0.5"/>
<path d="M38 24.5H41V30" stroke="#BCF3FE" stroke-width="0.5"/>
<path d="M14.5 43H21" stroke="#BCF3FE" stroke-width="0.5"/>
<path d="M20 30V31H21V34" stroke="#BCF3FE" stroke-width="0.7"/>
<path d="M101.5 18.5833L116 35.5L122 55L114.5 74H107.5L104 79L90.5 78L88 84L91.5 96H84L68 84.5L52.5 87L32.5 75.5L14 72.5L2 57L8 30.5L31.5 11L63.5 3.5L98 14.5L101.5 18.5833ZM101.5 18.5833H75M73 18.5833H75M75 18.5833V31" stroke="#BCF3FE"/>
<path d="M83.5 83V94" stroke="#BCF3FE" stroke-width="0.2"/>
<path d="M62.5 9V26" stroke="#BCF3FE"/>
<path d="M59.5 20H65.5" stroke="#BCF3FE"/>
<path d="M51.5 11H62.5" stroke="#BCF3FE"/>
<path d="M33 13V21" stroke="#BCF3FE"/>
<path d="M33 29.5V47.5" stroke="#BCF3FE" stroke-width="0.7"/>
<path d="M3.5 51.5H18" stroke="#BCF3FE" stroke-width="0.7"/>
<path d="M11 49V55" stroke="#BCF3FE" stroke-width="0.3"/>
<path d="M21 54.5V69" stroke="#BCF3FE"/>
<path d="M33 17.5H25V27" stroke="#BCF3FE"/>
<path d="M50 24.5V15H59.5V24.5H50Z" stroke="#BCF3FE" stroke-width="0.4"/>
<rect x="28.5" y="19.5" width="9" height="9.5" stroke="#BCF3FE"/>
<rect x="22" y="27" width="5" height="5" fill="#76ECF9"/>
<path d="M20 21.5V29" stroke="#BCF3FE"/>
<path d="M21 36.5V49" stroke="#BCF3FE"/>
<rect x="31" y="11" width="4" height="3" fill="#76ECF9"/>
<path d="M10.5 29.5H22" stroke="#BCF3FE"/>
<rect x="11" y="31" width="2" height="2" fill="#76ECF9"/>
<rect x="7" y="37" width="2" height="2" fill="#76ECF9"/>
<rect x="24" y="43" width="4" height="4" fill="#76ECF9"/>
<rect x="37" y="39" width="1" height="1" fill="#76ECF9"/>
<rect x="39" y="31" width="4" height="3" fill="#76ECF9"/>
<rect x="37" y="10" width="2" height="2" fill="#76ECF9"/>
<rect x="38" y="13" width="3" height="3" fill="#76ECF9"/>
<rect x="13" y="34" width="5" height="5" fill="#76ECF9"/>
<rect x="18" y="49" width="5" height="5" fill="#76ECF9"/>
<rect x="5" y="48" width="2" height="2" fill="#76ECF9"/>
<rect x="43" y="19" width="2" height="2" fill="#76ECF9"/>
<rect x="45" y="26" width="4" height="4" fill="#76ECF9"/>
<rect x="46" y="33" width="6" height="6" fill="#76ECF9"/>
<rect x="48" y="9" width="4" height="4" fill="#76ECF9"/>
<rect x="37" y="39" width="1" height="1" fill="#76ECF9"/>
<rect x="10" y="47" width="2" height="2" fill="#76ECF9"/>
<rect x="14" y="48" width="1" height="1" fill="#76ECF9"/>
<rect x="26" y="50" width="1" height="1" fill="#76ECF9"/>
<rect x="34" y="54" width="2" height="2" fill="#76ECFD"/>
<rect x="31" y="47" width="4" height="4" fill="#76ECF9"/>
<rect x="25.27" y="54.27" width="7.46" height="7.46" stroke="#BCF3FE" stroke-width="0.54"/>
<path d="M33 58H47V54" stroke="#BCF3FE" stroke-width="0.5"/>
<path d="M40.5 46.5V58" stroke="#BCF3FE" stroke-width="0.7"/>
<path d="M35 49.5H51" stroke="#BCF3FE" stroke-width="0.4"/>
<path d="M38.5 42.5H42V46.5H40.5H38.5" stroke="#BCF3FE" stroke-width="0.4"/>
<path d="M42 44.5H51.5M51.5 44.5V42.5H55.5V46H51.5V44.5Z" stroke="#BCF3FE" stroke-width="0.4"/>
<path d="M47 42V46.5" stroke="#BCF3FE" stroke-width="0.4"/>
<rect x="46" y="46" width="2" height="2" fill="#76ECF9"/>
<rect x="46" y="40" width="2" height="2" fill="#76ECF9"/>
<rect x="51" y="47" width="4" height="4" fill="#76ECF9"/>
<rect x="46" y="15" width="1" height="1" fill="#76ECF9"/>
<rect x="46" y="19" width="2" height="2" fill="#76ECF9"/>
<path d="M55 25V28.5H49" stroke="#BCF3FE" stroke-width="0.4"/>
<rect x="43" y="13" width="1" height="1" fill="#76ECF9"/>
<rect x="51" y="30" width="1" height="1" fill="#76ECF9"/>
<rect x="65" y="18" width="3" height="3" fill="#76ECF9"/>
<rect x="68" y="11" width="3" height="3" fill="#76ECF9"/>
<rect x="67" y="6" width="3" height="3" fill="#76ECF9"/>
<rect x="60" y="5" width="5" height="4" fill="#76ECF9"/>
<rect x="74" y="10" width="6" height="6" fill="#76ECF9"/>
<rect x="82" y="13" width="3" height="3" fill="#76ECF9"/>
<rect x="87" y="13" width="3" height="3" fill="#76ECF9"/>
<rect x="93" y="15" width="2" height="2" fill="#76ECF9"/>
<rect x="92" y="20" width="2" height="2" fill="#76ECF9"/>
<rect x="95" y="24" width="4" height="4" fill="#76ECF9"/>
<rect x="102" y="24" width="1" height="1" fill="#76ECF9"/>
<rect x="103" y="26" width="3" height="2" fill="#76ECF9"/>
<rect x="108" y="31" width="5" height="4" fill="#76ECF9"/>
<rect x="96" y="35" width="4" height="4" fill="#76ECF9"/>
<rect x="113" y="44" width="4" height="4" fill="#76ECF9"/>
<rect x="115" y="51" width="2" height="2" fill="#76ECF9"/>
<path d="M104 28V35H100" stroke="#BCF3FE" stroke-width="0.2"/>
<path d="M110 35V46" stroke="#BCF3FE" stroke-width="0.3"/>
<path d="M107 46H113" stroke="#BCF3FE" stroke-width="0.3"/>
<path d="M107 50V41H98V50H107Z" stroke="#BCF3FE" stroke-width="0.3"/>
<path d="M102.5 50V54H96.5" stroke="#BCF3FE" stroke-width="0.3"/>
<path d="M96.5 52V55.5H93.5" stroke="#BCF3FE" stroke-width="0.3"/>
<path d="M98 46H85.5" stroke="#BCF3FE" stroke-width="0.3"/>
<path d="M91.5 42.5V48.5" stroke="#BCF3FE" stroke-width="0.3"/>
<path d="M73 33H85V45H73V33Z" fill="#E4F9FC"/>
<path d="M83 31L83 43" stroke="#BCF3FE" stroke-width="0.7"/>
<path d="M79 31H87.5H88V22H79V31Z" stroke="#BCF3FE" stroke-width="0.7"/>
<path d="M88 26.5H91.5" stroke="#BCF3FE" stroke-width="0.7"/>
<path d="M91.5 26.5V32.5M91.5 32.5H89.5V36H93V32.5H91.5Z" stroke="#BCF3FE" stroke-width="0.4"/>
<path d="M83.5 16V21.5" stroke="#BCF3FE" stroke-width="0.4"/>
<path d="M75.5 41.5H80.5M73 17H69.5V20.5H73V17Z" stroke="#BCF3FE" stroke-width="0.3"/>
<path d="M78 38.5V44.5" stroke="#BCF3FE" stroke-width="0.4"/>
<rect x="57" y="25" width="12" height="12" fill="#76ECF9"/>
<rect x="85" y="33" width="2" height="3" fill="#76ECF9"/>
<path d="M100 37H116" stroke="#BCF3FE" stroke-width="0.4"/>
<g filter="url(#filter0_f_2_170)">
<circle cx="98.5" cy="14.5" r="1.5" fill="#76ECF9"/>
</g>
<g filter="url(#filter1_f_2_170)">
<path d="M33 10.5C33 11.3284 32.3284 12 31.5 12C30.6716 12 30 11.3284 30 10.5C30 9.67157 30.6716 9 31.5 9C32.3284 9 33 9.67157 33 10.5Z" fill="#E1EDEE"/>
<path d="M33 10.5C33 11.3284 32.3284 12 31.5 12C30.6716 12 30 11.3284 30 10.5C30 9.67157 30.6716 9 31.5 9C32.3284 9 33 9.67157 33 10.5Z" fill="#E1EDEE"/>
<path d="M33 10.5C33 11.3284 32.3284 12 31.5 12C30.6716 12 30 11.3284 30 10.5C30 9.67157 30.6716 9 31.5 9C32.3284 9 33 9.67157 33 10.5Z" fill="#E1EDEE"/>
<path d="M33 10.5C33 11.3284 32.3284 12 31.5 12C30.6716 12 30 11.3284 30 10.5C30 9.67157 30.6716 9 31.5 9C32.3284 9 33 9.67157 33 10.5Z" fill="#E1EDEE"/>
</g>
<g filter="url(#filter2_f_2_170)">
<path d="M4 57.5C4 58.3284 3.32843 59 2.5 59C1.67157 59 1 58.3284 1 57.5C1 56.6716 1.67157 56 2.5 56C3.32843 56 4 56.6716 4 57.5Z" fill="#E1EDEE"/>
<path d="M4 57.5C4 58.3284 3.32843 59 2.5 59C1.67157 59 1 58.3284 1 57.5C1 56.6716 1.67157 56 2.5 56C3.32843 56 4 56.6716 4 57.5Z" fill="#E1EDEE"/>
<path d="M4 57.5C4 58.3284 3.32843 59 2.5 59C1.67157 59 1 58.3284 1 57.5C1 56.6716 1.67157 56 2.5 56C3.32843 56 4 56.6716 4 57.5Z" fill="#E1EDEE"/>
<path d="M4 57.5C4 58.3284 3.32843 59 2.5 59C1.67157 59 1 58.3284 1 57.5C1 56.6716 1.67157 56 2.5 56C3.32843 56 4 56.6716 4 57.5Z" fill="#E1EDEE"/>
</g>
<g filter="url(#filter3_f_2_170)">
<path d="M16 72.5C16 73.3284 15.3284 74 14.5 74C13.6716 74 13 73.3284 13 72.5C13 71.6716 13.6716 71 14.5 71C15.3284 71 16 71.6716 16 72.5Z" fill="#E1EDEE"/>
<path d="M16 72.5C16 73.3284 15.3284 74 14.5 74C13.6716 74 13 73.3284 13 72.5C13 71.6716 13.6716 71 14.5 71C15.3284 71 16 71.6716 16 72.5Z" fill="#E1EDEE"/>
<path d="M16 72.5C16 73.3284 15.3284 74 14.5 74C13.6716 74 13 73.3284 13 72.5C13 71.6716 13.6716 71 14.5 71C15.3284 71 16 71.6716 16 72.5Z" fill="#E1EDEE"/>
<path d="M16 72.5C16 73.3284 15.3284 74 14.5 74C13.6716 74 13 73.3284 13 72.5C13 71.6716 13.6716 71 14.5 71C15.3284 71 16 71.6716 16 72.5Z" fill="#E1EDEE"/>
</g>
<g filter="url(#filter4_f_2_170)">
<path d="M54 87C54 88.1046 53.1046 89 52 89C50.8954 89 50 88.1046 50 87C50 85.8954 50.8954 85 52 85C53.1046 85 54 85.8954 54 87Z" fill="#E1EDEE"/>
<path d="M54 87C54 88.1046 53.1046 89 52 89C50.8954 89 50 88.1046 50 87C50 85.8954 50.8954 85 52 85C53.1046 85 54 85.8954 54 87Z" fill="#E1EDEE"/>
<path d="M54 87C54 88.1046 53.1046 89 52 89C50.8954 89 50 88.1046 50 87C50 85.8954 50.8954 85 52 85C53.1046 85 54 85.8954 54 87Z" fill="#E1EDEE"/>
<path d="M54 87C54 88.1046 53.1046 89 52 89C50.8954 89 50 88.1046 50 87C50 85.8954 50.8954 85 52 85C53.1046 85 54 85.8954 54 87Z" fill="#E1EDEE"/>
</g>
<g filter="url(#filter5_f_2_170)">
<path d="M70 84.5C70 85.8807 68.8807 87 67.5 87C66.1193 87 65 85.8807 65 84.5C65 83.1193 66.1193 82 67.5 82C68.8807 82 70 83.1193 70 84.5Z" fill="#E1EDEE"/>
<path d="M70 84.5C70 85.8807 68.8807 87 67.5 87C66.1193 87 65 85.8807 65 84.5C65 83.1193 66.1193 82 67.5 82C68.8807 82 70 83.1193 70 84.5Z" fill="#E1EDEE"/>
<path d="M70 84.5C70 85.8807 68.8807 87 67.5 87C66.1193 87 65 85.8807 65 84.5C65 83.1193 66.1193 82 67.5 82C68.8807 82 70 83.1193 70 84.5Z" fill="#E1EDEE"/>
<path d="M70 84.5C70 85.8807 68.8807 87 67.5 87C66.1193 87 65 85.8807 65 84.5C65 83.1193 66.1193 82 67.5 82C68.8807 82 70 83.1193 70 84.5Z" fill="#E1EDEE"/>
</g>
<g filter="url(#filter6_f_2_170)">
<path d="M85 95.5C85 96.3284 84.3284 97 83.5 97C82.6716 97 82 96.3284 82 95.5C82 94.6716 82.6716 94 83.5 94C84.3284 94 85 94.6716 85 95.5Z" fill="#E1EDEE"/>
<path d="M85 95.5C85 96.3284 84.3284 97 83.5 97C82.6716 97 82 96.3284 82 95.5C82 94.6716 82.6716 94 83.5 94C84.3284 94 85 94.6716 85 95.5Z" fill="#E1EDEE"/>
<path d="M85 95.5C85 96.3284 84.3284 97 83.5 97C82.6716 97 82 96.3284 82 95.5C82 94.6716 82.6716 94 83.5 94C84.3284 94 85 94.6716 85 95.5Z" fill="#E1EDEE"/>
<path d="M85 95.5C85 96.3284 84.3284 97 83.5 97C82.6716 97 82 96.3284 82 95.5C82 94.6716 82.6716 94 83.5 94C84.3284 94 85 94.6716 85 95.5Z" fill="#E1EDEE"/>
</g>
<g filter="url(#filter7_f_2_170)">
<path d="M93 96.5C93 97.3284 92.3284 98 91.5 98C90.6716 98 90 97.3284 90 96.5C90 95.6716 90.6716 95 91.5 95C92.3284 95 93 95.6716 93 96.5Z" fill="#E1EDEE"/>
<path d="M93 96.5C93 97.3284 92.3284 98 91.5 98C90.6716 98 90 97.3284 90 96.5C90 95.6716 90.6716 95 91.5 95C92.3284 95 93 95.6716 93 96.5Z" fill="#E1EDEE"/>
<path d="M93 96.5C93 97.3284 92.3284 98 91.5 98C90.6716 98 90 97.3284 90 96.5C90 95.6716 90.6716 95 91.5 95C92.3284 95 93 95.6716 93 96.5Z" fill="#E1EDEE"/>
<path d="M93 96.5C93 97.3284 92.3284 98 91.5 98C90.6716 98 90 97.3284 90 96.5C90 95.6716 90.6716 95 91.5 95C92.3284 95 93 95.6716 93 96.5Z" fill="#E1EDEE"/>
</g>
<g filter="url(#filter8_f_2_170)">
<path d="M90 84.5C90 85.3284 89.3284 86 88.5 86C87.6716 86 87 85.3284 87 84.5C87 83.6716 87.6716 83 88.5 83C89.3284 83 90 83.6716 90 84.5Z" fill="#E1EDEE"/>
<path d="M90 84.5C90 85.3284 89.3284 86 88.5 86C87.6716 86 87 85.3284 87 84.5C87 83.6716 87.6716 83 88.5 83C89.3284 83 90 83.6716 90 84.5Z" fill="#E1EDEE"/>
<path d="M90 84.5C90 85.3284 89.3284 86 88.5 86C87.6716 86 87 85.3284 87 84.5C87 83.6716 87.6716 83 88.5 83C89.3284 83 90 83.6716 90 84.5Z" fill="#E1EDEE"/>
<path d="M90 84.5C90 85.3284 89.3284 86 88.5 86C87.6716 86 87 85.3284 87 84.5C87 83.6716 87.6716 83 88.5 83C89.3284 83 90 83.6716 90 84.5Z" fill="#E1EDEE"/>
</g>
<g filter="url(#filter9_f_2_170)">
<path d="M92 78.5C92 79.3284 91.3284 80 90.5 80C89.6716 80 89 79.3284 89 78.5C89 77.6716 89.6716 77 90.5 77C91.3284 77 92 77.6716 92 78.5Z" fill="#E1EDEE"/>
<path d="M92 78.5C92 79.3284 91.3284 80 90.5 80C89.6716 80 89 79.3284 89 78.5C89 77.6716 89.6716 77 90.5 77C91.3284 77 92 77.6716 92 78.5Z" fill="#E1EDEE"/>
<path d="M92 78.5C92 79.3284 91.3284 80 90.5 80C89.6716 80 89 79.3284 89 78.5C89 77.6716 89.6716 77 90.5 77C91.3284 77 92 77.6716 92 78.5Z" fill="#E1EDEE"/>
<path d="M92 78.5C92 79.3284 91.3284 80 90.5 80C89.6716 80 89 79.3284 89 78.5C89 77.6716 89.6716 77 90.5 77C91.3284 77 92 77.6716 92 78.5Z" fill="#E1EDEE"/>
</g>
<g filter="url(#filter10_f_2_170)">
<path d="M105 79.5C105 80.3284 104.328 81 103.5 81C102.672 81 102 80.3284 102 79.5C102 78.6716 102.672 78 103.5 78C104.328 78 105 78.6716 105 79.5Z" fill="#E1EDEE"/>
<path d="M105 79.5C105 80.3284 104.328 81 103.5 81C102.672 81 102 80.3284 102 79.5C102 78.6716 102.672 78 103.5 78C104.328 78 105 78.6716 105 79.5Z" fill="#E1EDEE"/>
<path d="M105 79.5C105 80.3284 104.328 81 103.5 81C102.672 81 102 80.3284 102 79.5C102 78.6716 102.672 78 103.5 78C104.328 78 105 78.6716 105 79.5Z" fill="#E1EDEE"/>
<path d="M105 79.5C105 80.3284 104.328 81 103.5 81C102.672 81 102 80.3284 102 79.5C102 78.6716 102.672 78 103.5 78C104.328 78 105 78.6716 105 79.5Z" fill="#E1EDEE"/>
</g>
<g filter="url(#filter11_f_2_170)">
<path d="M109 74.5C109 75.3284 108.328 76 107.5 76C106.672 76 106 75.3284 106 74.5C106 73.6716 106.672 73 107.5 73C108.328 73 109 73.6716 109 74.5Z" fill="#E1EDEE"/>
<path d="M109 74.5C109 75.3284 108.328 76 107.5 76C106.672 76 106 75.3284 106 74.5C106 73.6716 106.672 73 107.5 73C108.328 73 109 73.6716 109 74.5Z" fill="#E1EDEE"/>
<path d="M109 74.5C109 75.3284 108.328 76 107.5 76C106.672 76 106 75.3284 106 74.5C106 73.6716 106.672 73 107.5 73C108.328 73 109 73.6716 109 74.5Z" fill="#E1EDEE"/>
<path d="M109 74.5C109 75.3284 108.328 76 107.5 76C106.672 76 106 75.3284 106 74.5C106 73.6716 106.672 73 107.5 73C108.328 73 109 73.6716 109 74.5Z" fill="#E1EDEE"/>
</g>
<g filter="url(#filter12_f_2_170)">
<path d="M116 74.5C116 75.3284 115.328 76 114.5 76C113.672 76 113 75.3284 113 74.5C113 73.6716 113.672 73 114.5 73C115.328 73 116 73.6716 116 74.5Z" fill="#E1EDEE"/>
<path d="M116 74.5C116 75.3284 115.328 76 114.5 76C113.672 76 113 75.3284 113 74.5C113 73.6716 113.672 73 114.5 73C115.328 73 116 73.6716 116 74.5Z" fill="#E1EDEE"/>
<path d="M116 74.5C116 75.3284 115.328 76 114.5 76C113.672 76 113 75.3284 113 74.5C113 73.6716 113.672 73 114.5 73C115.328 73 116 73.6716 116 74.5Z" fill="#E1EDEE"/>
<path d="M116 74.5C116 75.3284 115.328 76 114.5 76C113.672 76 113 75.3284 113 74.5C113 73.6716 113.672 73 114.5 73C115.328 73 116 73.6716 116 74.5Z" fill="#E1EDEE"/>
</g>
<g filter="url(#filter13_f_2_170)">
<path d="M123 55.5C123 56.3284 122.328 57 121.5 57C120.672 57 120 56.3284 120 55.5C120 54.6716 120.672 54 121.5 54C122.328 54 123 54.6716 123 55.5Z" fill="#E1EDEE"/>
<path d="M123 55.5C123 56.3284 122.328 57 121.5 57C120.672 57 120 56.3284 120 55.5C120 54.6716 120.672 54 121.5 54C122.328 54 123 54.6716 123 55.5Z" fill="#E1EDEE"/>
<path d="M123 55.5C123 56.3284 122.328 57 121.5 57C120.672 57 120 56.3284 120 55.5C120 54.6716 120.672 54 121.5 54C122.328 54 123 54.6716 123 55.5Z" fill="#E1EDEE"/>
<path d="M123 55.5C123 56.3284 122.328 57 121.5 57C120.672 57 120 56.3284 120 55.5C120 54.6716 120.672 54 121.5 54C122.328 54 123 54.6716 123 55.5Z" fill="#E1EDEE"/>
</g>
<g filter="url(#filter14_f_2_170)">
<path d="M117 34.5C117 35.3284 116.328 36 115.5 36C114.672 36 114 35.3284 114 34.5C114 33.6716 114.672 33 115.5 33C116.328 33 117 33.6716 117 34.5Z" fill="#E1EDEE"/>
<path d="M117 34.5C117 35.3284 116.328 36 115.5 36C114.672 36 114 35.3284 114 34.5C114 33.6716 114.672 33 115.5 33C116.328 33 117 33.6716 117 34.5Z" fill="#E1EDEE"/>
<path d="M117 34.5C117 35.3284 116.328 36 115.5 36C114.672 36 114 35.3284 114 34.5C114 33.6716 114.672 33 115.5 33C116.328 33 117 33.6716 117 34.5Z" fill="#E1EDEE"/>
<path d="M117 34.5C117 35.3284 116.328 36 115.5 36C114.672 36 114 35.3284 114 34.5C114 33.6716 114.672 33 115.5 33C116.328 33 117 33.6716 117 34.5Z" fill="#E1EDEE"/>
</g>
<g filter="url(#filter15_f_2_170)">
<path d="M36 76C36 77.6569 34.6569 79 33 79C31.3431 79 30 77.6569 30 76C30 74.3431 31.3431 73 33 73C34.6569 73 36 74.3431 36 76Z" fill="#E1EDEE"/>
<path d="M36 76C36 77.6569 34.6569 79 33 79C31.3431 79 30 77.6569 30 76C30 74.3431 31.3431 73 33 73C34.6569 73 36 74.3431 36 76Z" fill="#E1EDEE"/>
<path d="M36 76C36 77.6569 34.6569 79 33 79C31.3431 79 30 77.6569 30 76C30 74.3431 31.3431 73 33 73C34.6569 73 36 74.3431 36 76Z" fill="#E1EDEE"/>
<path d="M36 76C36 77.6569 34.6569 79 33 79C31.3431 79 30 77.6569 30 76C30 74.3431 31.3431 73 33 73C34.6569 73 36 74.3431 36 76Z" fill="#E1EDEE"/>
</g>
<g filter="url(#filter16_f_2_170)">
<path d="M9 31C9 32.1046 8.10457 33 7 33C5.89543 33 5 32.1046 5 31C5 29.8954 5.89543 29 7 29C8.10457 29 9 29.8954 9 31Z" fill="#E1EDEE"/>
<path d="M9 31C9 32.1046 8.10457 33 7 33C5.89543 33 5 32.1046 5 31C5 29.8954 5.89543 29 7 29C8.10457 29 9 29.8954 9 31Z" fill="#7DCFD8"/>
<path d="M9 31C9 32.1046 8.10457 33 7 33C5.89543 33 5 32.1046 5 31C5 29.8954 5.89543 29 7 29C8.10457 29 9 29.8954 9 31Z" fill="#E1EDEE"/>
<path d="M9 31C9 32.1046 8.10457 33 7 33C5.89543 33 5 32.1046 5 31C5 29.8954 5.89543 29 7 29C8.10457 29 9 29.8954 9 31Z" fill="#7DCFD8"/>
</g>
<g filter="url(#filter17_f_2_170)">
<path d="M65 3.5C65 4.32843 64.3284 5 63.5 5C62.6716 5 62 4.32843 62 3.5C62 2.67157 62.6716 2 63.5 2C64.3284 2 65 2.67157 65 3.5Z" fill="#E1EDEE"/>
<path d="M65 3.5C65 4.32843 64.3284 5 63.5 5C62.6716 5 62 4.32843 62 3.5C62 2.67157 62.6716 2 63.5 2C64.3284 2 65 2.67157 65 3.5Z" fill="#E1EDEE"/>
<path d="M65 3.5C65 4.32843 64.3284 5 63.5 5C62.6716 5 62 4.32843 62 3.5C62 2.67157 62.6716 2 63.5 2C64.3284 2 65 2.67157 65 3.5Z" fill="#E1EDEE"/>
<path d="M65 3.5C65 4.32843 64.3284 5 63.5 5C62.6716 5 62 4.32843 62 3.5C62 2.67157 62.6716 2 63.5 2C64.3284 2 65 2.67157 65 3.5Z" fill="#E1EDEE"/>
</g>
<path d="M10 45V41H14.5V45H10Z" stroke="#BCF3FE" stroke-width="0.4"/>
<path d="M13.5 55H8.5V59.5H13.5V55Z" stroke="#BCF3FE" stroke-width="0.4"/>
<rect x="5" y="56" width="1" height="1" fill="#76ECF9"/>
<rect x="14" y="60" width="2" height="2" fill="#76ECF9"/>
<rect x="12" y="63" width="3" height="3" fill="#76ECF9"/>
<rect x="15" y="66" width="1" height="1" fill="#76ECF9"/>
<rect x="23" y="67" width="2" height="2" fill="#76ECF9"/>
<rect x="28" y="63" width="2" height="2" fill="#76ECF9"/>
<rect x="27" y="70" width="2" height="2" fill="#76ECF9"/>
<rect x="48" y="55" width="6" height="6" fill="#BCF5FC"/>
<rect x="49" y="67" width="4" height="4" fill="#BCF5FC"/>
<rect x="33" y="70" width="6" height="6" fill="#DFFAFD"/>
<rect x="53" y="73" width="2" height="2" fill="#BCF5FC"/>
<rect x="56" y="71" width="2" height="2" fill="#BCF5FC"/>
<rect x="61" y="71" width="6" height="6" fill="#DCFBFF"/>
<path d="M61 49.5V43.5H67V49.5H61Z" stroke="#BCF3FE" stroke-width="0.4"/>
<path d="M64 49.5V71" stroke="#BCF3FE" stroke-width="0.5"/>
<path d="M54 58H71" stroke="#BCF3FE" stroke-width="0.7"/>
<rect x="71" y="53" width="10" height="9" fill="#BCF5FC"/>
<path d="M46 53.5H63" stroke="#BCF3FE" stroke-width="0.5"/>
<path d="M83.5 47V73.5" stroke="#BCF3FE" stroke-width="0.5"/>
<path d="M81 57.5H86.5" stroke="#BCF3FE" stroke-width="0.5"/>
<rect x="86" y="56" width="4" height="4" fill="#BCF5FC"/>
<path d="M90 57.5H120" stroke="#BCF3FE" stroke-width="0.5"/>
<path d="M102.5 57.5V78" stroke="#BCF3FE" stroke-width="0.6"/>
<rect x="87" y="61" width="6" height="6" fill="#BCF5FC"/>
<rect x="95" y="66" width="2" height="2" fill="#BCF5FC"/>
<rect x="90" y="69" width="2" height="2" fill="#BCF5FC"/>
<rect x="99" y="70" width="2" height="2" fill="#BCF5FC"/>
<rect x="93" y="73" width="2" height="2" fill="#BCF5FC"/>
<rect x="78" y="68" width="2" height="2" fill="#BCF5FC"/>
<path d="M69.5 62.5H82" stroke="#BCF3FE" stroke-width="0.2"/>
<path d="M76 62.5V66.5" stroke="#BCF3FE" stroke-width="0.2"/>
<path d="M76 65.5H70V64H66.5V67.5" stroke="#BCF3FE" stroke-width="0.2"/>
<path d="M55 69H72.5" stroke="#BCF3FE" stroke-width="0.2"/>
<rect x="71" y="74" width="3" height="3" fill="#BCF5FC"/>
<rect x="79" y="74" width="9" height="9" fill="#BCF5FC"/>
<rect x="109" y="61" width="5" height="5" fill="#BCF5FC"/>
<rect x="115" y="59" width="2" height="2" fill="#D5FAFF"/>
<rect x="111" y="68" width="3" height="3" fill="#BCF5FC"/>
<rect x="83" y="90" width="3" height="3" fill="#BCF5FC"/>
<rect x="78" y="87" width="2" height="2" fill="#BCF5FC"/>
<rect x="55" y="79" width="6" height="5" fill="#BCF5FC"/>
<rect x="46" y="80" width="2" height="2" fill="#D1FAFF"/>
<rect x="47" y="74" width="7" height="6" fill="#BCF5FC"/>
<defs>
<filter id="filter0_f_2_170" x="96" y="12" width="5" height="5" filterUnits="userSpaceOnUse" color-interpolation-filters="sRGB">
<feFlood flood-opacity="0" result="BackgroundImageFix"/>
<feBlend mode="normal" in="SourceGraphic" in2="BackgroundImageFix" result="shape"/>
<feGaussianBlur stdDeviation="0.5" result="effect1_foregroundBlur_2_170"/>
</filter>
<filter id="filter1_f_2_170" x="28" y="7" width="7" height="7" filterUnits="userSpaceOnUse" color-interpolation-filters="sRGB">
<feFlood flood-opacity="0" result="BackgroundImageFix"/>
<feBlend mode="normal" in="SourceGraphic" in2="BackgroundImageFix" result="shape"/>
<feGaussianBlur stdDeviation="1" result="effect1_foregroundBlur_2_170"/>
</filter>
<filter id="filter2_f_2_170" x="0" y="55" width="5" height="5" filterUnits="userSpaceOnUse" color-interpolation-filters="sRGB">
<feFlood flood-opacity="0" result="BackgroundImageFix"/>
<feBlend mode="normal" in="SourceGraphic" in2="BackgroundImageFix" result="shape"/>
<feGaussianBlur stdDeviation="0.5" result="effect1_foregroundBlur_2_170"/>
</filter>
<filter id="filter3_f_2_170" x="12" y="70" width="5" height="5" filterUnits="userSpaceOnUse" color-interpolation-filters="sRGB">
<feFlood flood-opacity="0" result="BackgroundImageFix"/>
<feBlend mode="normal" in="SourceGraphic" in2="BackgroundImageFix" result="shape"/>
<feGaussianBlur stdDeviation="0.5" result="effect1_foregroundBlur_2_170"/>
</filter>
<filter id="filter4_f_2_170" x="49" y="84" width="6" height="6" filterUnits="userSpaceOnUse" color-interpolation-filters="sRGB">
<feFlood flood-opacity="0" result="BackgroundImageFix"/>
<feBlend mode="normal" in="SourceGraphic" in2="BackgroundImageFix" result="shape"/>
<feGaussianBlur stdDeviation="0.5" result="effect1_foregroundBlur_2_170"/>
</filter>
<filter id="filter5_f_2_170" x="63" y="80" width="9" height="9" filterUnits="userSpaceOnUse" color-interpolation-filters="sRGB">
<feFlood flood-opacity="0" result="BackgroundImageFix"/>
<feBlend mode="normal" in="SourceGraphic" in2="BackgroundImageFix" result="shape"/>
<feGaussianBlur stdDeviation="1" result="effect1_foregroundBlur_2_170"/>
</filter>
<filter id="filter6_f_2_170" x="81" y="93" width="5" height="5" filterUnits="userSpaceOnUse" color-interpolation-filters="sRGB">
<feFlood flood-opacity="0" result="BackgroundImageFix"/>
<feBlend mode="normal" in="SourceGraphic" in2="BackgroundImageFix" result="shape"/>
<feGaussianBlur stdDeviation="0.5" result="effect1_foregroundBlur_2_170"/>
</filter>
<filter id="filter7_f_2_170" x="89" y="94" width="5" height="5" filterUnits="userSpaceOnUse" color-interpolation-filters="sRGB">
<feFlood flood-opacity="0" result="BackgroundImageFix"/>
<feBlend mode="normal" in="SourceGraphic" in2="BackgroundImageFix" result="shape"/>
<feGaussianBlur stdDeviation="0.5" result="effect1_foregroundBlur_2_170"/>
</filter>
<filter id="filter8_f_2_170" x="86" y="82" width="5" height="5" filterUnits="userSpaceOnUse" color-interpolation-filters="sRGB">
<feFlood flood-opacity="0" result="BackgroundImageFix"/>
<feBlend mode="normal" in="SourceGraphic" in2="BackgroundImageFix" result="shape"/>
<feGaussianBlur stdDeviation="0.5" result="effect1_foregroundBlur_2_170"/>
</filter>
<filter id="filter9_f_2_170" x="88" y="76" width="5" height="5" filterUnits="userSpaceOnUse" color-interpolation-filters="sRGB">
<feFlood flood-opacity="0" result="BackgroundImageFix"/>
<feBlend mode="normal" in="SourceGraphic" in2="BackgroundImageFix" result="shape"/>
<feGaussianBlur stdDeviation="0.5" result="effect1_foregroundBlur_2_170"/>
</filter>
<filter id="filter10_f_2_170" x="101" y="77" width="5" height="5" filterUnits="userSpaceOnUse" color-interpolation-filters="sRGB">
<feFlood flood-opacity="0" result="BackgroundImageFix"/>
<feBlend mode="normal" in="SourceGraphic" in2="BackgroundImageFix" result="shape"/>
<feGaussianBlur stdDeviation="0.5" result="effect1_foregroundBlur_2_170"/>
</filter>
<filter id="filter11_f_2_170" x="105" y="72" width="5" height="5" filterUnits="userSpaceOnUse" color-interpolation-filters="sRGB">
<feFlood flood-opacity="0" result="BackgroundImageFix"/>
<feBlend mode="normal" in="SourceGraphic" in2="BackgroundImageFix" result="shape"/>
<feGaussianBlur stdDeviation="0.5" result="effect1_foregroundBlur_2_170"/>
</filter>
<filter id="filter12_f_2_170" x="112" y="72" width="5" height="5" filterUnits="userSpaceOnUse" color-interpolation-filters="sRGB">
<feFlood flood-opacity="0" result="BackgroundImageFix"/>
<feBlend mode="normal" in="SourceGraphic" in2="BackgroundImageFix" result="shape"/>
<feGaussianBlur stdDeviation="0.5" result="effect1_foregroundBlur_2_170"/>
</filter>
<filter id="filter13_f_2_170" x="119" y="53" width="5" height="5" filterUnits="userSpaceOnUse" color-interpolation-filters="sRGB">
<feFlood flood-opacity="0" result="BackgroundImageFix"/>
<feBlend mode="normal" in="SourceGraphic" in2="BackgroundImageFix" result="shape"/>
<feGaussianBlur stdDeviation="0.5" result="effect1_foregroundBlur_2_170"/>
</filter>
<filter id="filter14_f_2_170" x="113" y="32" width="5" height="5" filterUnits="userSpaceOnUse" color-interpolation-filters="sRGB">
<feFlood flood-opacity="0" result="BackgroundImageFix"/>
<feBlend mode="normal" in="SourceGraphic" in2="BackgroundImageFix" result="shape"/>
<feGaussianBlur stdDeviation="0.5" result="effect1_foregroundBlur_2_170"/>
</filter>
<filter id="filter15_f_2_170" x="28" y="71" width="10" height="10" filterUnits="userSpaceOnUse" color-interpolation-filters="sRGB">
<feFlood flood-opacity="0" result="BackgroundImageFix"/>
<feBlend mode="normal" in="SourceGraphic" in2="BackgroundImageFix" result="shape"/>
<feGaussianBlur stdDeviation="1" result="effect1_foregroundBlur_2_170"/>
</filter>
<filter id="filter16_f_2_170" x="3" y="27" width="8" height="8" filterUnits="userSpaceOnUse" color-interpolation-filters="sRGB">
<feFlood flood-opacity="0" result="BackgroundImageFix"/>
<feBlend mode="normal" in="SourceGraphic" in2="BackgroundImageFix" result="shape"/>
<feGaussianBlur stdDeviation="1" result="effect1_foregroundBlur_2_170"/>
</filter>
<filter id="filter17_f_2_170" x="60" y="0" width="7" height="7" filterUnits="userSpaceOnUse" color-interpolation-filters="sRGB">
<feFlood flood-opacity="0" result="BackgroundImageFix"/>
<feBlend mode="normal" in="SourceGraphic" in2="BackgroundImageFix" result="shape"/>
<feGaussianBlur stdDeviation="1" result="effect1_foregroundBlur_2_170"/>
</filter>
</defs>
</svg>
