<svg width="174" height="209" viewBox="0 0 174 209" fill="none" xmlns="http://www.w3.org/2000/svg">
<rect width="174" height="209" fill="#F5F5F5"/>
<path d="M41.5 21L67 10L79.5 8L88.25 7.5L97 7L109.5 8.5L128 14.5L143 22.5L153.5 33.5C155.546 36.6371 159.333 42.2746 160.861 43.9997L161.5 44.5C161.9 44.1 164.333 52 165.5 56L167.5 72L166.5 90L160.5 110.5L130 149.5L135 177L142.529 200.5L59.75 202.75L60 193L58 161.5L24.2532 166.321L23 166.5L17 164L14 158L16 147L12 140.5L16 136.5L10 133L14.5 121L7.5 116.5L6 113L7 107L15 97.5L21 88L24 76L17.5 60.5L27.5 36L41.5 21Z" fill="url(#paint0_linear_0_1)"/>
<path d="M52.5 54.5H59.5V57.5H66V52" stroke="#BCF3FE" stroke-width="0.5"/>
<path d="M66 54.5H81.5" stroke="#BCF3FE" stroke-width="0.5"/>
<path d="M73 42.5H76V48" stroke="#BCF3FE" stroke-width="0.5"/>
<path d="M49.5 61H56" stroke="#BCF3FE" stroke-width="0.5"/>
<path d="M55 48V49H56V52" stroke="#BCF3FE" stroke-width="0.7"/>
<path d="M136.5 36.5833L151 53.5L157 73L149.5 92H142.5L139 97L125.5 96L123 102L126.5 114H119L103 102.5L87.5 105L67.5 93.5L49 90.5L37 75L43 48.5L66.5 29L98.5 21.5L133 32.5L136.5 36.5833ZM136.5 36.5833H110M108 36.5833H110M110 36.5833V49" stroke="#BCF3FE"/>
<path d="M118.5 101V112" stroke="#BCF3FE" stroke-width="0.2"/>
<path d="M97.5 27V44" stroke="#BCF3FE"/>
<path d="M94.5 38H100.5" stroke="#BCF3FE"/>
<path d="M86.5 29H97.5" stroke="#BCF3FE"/>
<path d="M68 31V39" stroke="#BCF3FE"/>
<path d="M68 47.5V65.5" stroke="#BCF3FE" stroke-width="0.7"/>
<path d="M38.5 69.5H53" stroke="#BCF3FE" stroke-width="0.7"/>
<path d="M46 67V73" stroke="#BCF3FE" stroke-width="0.3"/>
<path d="M56 72.5V87" stroke="#BCF3FE"/>
<path d="M68 35.5H60V45" stroke="#BCF3FE"/>
<path d="M85 42.5V33H94.5V42.5H85Z" stroke="#BCF3FE" stroke-width="0.4"/>
<rect x="63.5" y="37.5" width="9" height="9.5" stroke="#BCF3FE"/>
<rect x="57" y="45" width="5" height="5" fill="#76ECF9"/>
<path d="M55 39.5V47" stroke="#BCF3FE"/>
<path d="M56 54.5V67" stroke="#BCF3FE"/>
<rect x="66" y="29" width="4" height="3" fill="#76ECF9"/>
<path d="M45.5 47.5H57" stroke="#BCF3FE"/>
<rect x="46" y="49" width="2" height="2" fill="#76ECF9"/>
<rect x="42" y="55" width="2" height="2" fill="#76ECF9"/>
<rect x="59" y="61" width="4" height="4" fill="#76ECF9"/>
<rect x="72" y="57" width="1" height="1" fill="#76ECF9"/>
<rect x="74" y="49" width="4" height="3" fill="#76ECF9"/>
<rect x="72" y="28" width="2" height="2" fill="#76ECF9"/>
<rect x="73" y="31" width="3" height="3" fill="#76ECF9"/>
<rect x="48" y="52" width="5" height="5" fill="#76ECF9"/>
<rect x="53" y="67" width="5" height="5" fill="#76ECF9"/>
<rect x="40" y="66" width="2" height="2" fill="#76ECF9"/>
<rect x="78" y="37" width="2" height="2" fill="#76ECF9"/>
<rect x="80" y="44" width="4" height="4" fill="#76ECF9"/>
<rect x="81" y="51" width="6" height="6" fill="#76ECF9"/>
<rect x="83" y="27" width="4" height="4" fill="#76ECF9"/>
<rect x="72" y="57" width="1" height="1" fill="#76ECF9"/>
<rect x="45" y="65" width="2" height="2" fill="#76ECF9"/>
<rect x="49" y="66" width="1" height="1" fill="#76ECF9"/>
<rect x="61" y="68" width="1" height="1" fill="#76ECF9"/>
<rect x="69" y="72" width="2" height="2" fill="#76ECFD"/>
<rect x="66" y="65" width="4" height="4" fill="#76ECF9"/>
<rect x="60.27" y="72.27" width="7.46" height="7.46" stroke="#BCF3FE" stroke-width="0.54"/>
<path d="M68 76H82V72" stroke="#BCF3FE" stroke-width="0.5"/>
<path d="M75.5 64.5V76" stroke="#BCF3FE" stroke-width="0.7"/>
<path d="M70 67.5H86" stroke="#BCF3FE" stroke-width="0.4"/>
<path d="M73.5 60.5H77V64.5H75.5H73.5" stroke="#BCF3FE" stroke-width="0.4"/>
<path d="M77 62.5H86.5M86.5 62.5V60.5H90.5V64H86.5V62.5Z" stroke="#BCF3FE" stroke-width="0.4"/>
<path d="M82 60V64.5" stroke="#BCF3FE" stroke-width="0.4"/>
<rect x="81" y="64" width="2" height="2" fill="#76ECF9"/>
<rect x="81" y="58" width="2" height="2" fill="#76ECF9"/>
<rect x="86" y="65" width="4" height="4" fill="#76ECF9"/>
<rect x="81" y="33" width="1" height="1" fill="#76ECF9"/>
<rect x="81" y="37" width="2" height="2" fill="#76ECF9"/>
<path d="M90 43V46.5H84" stroke="#BCF3FE" stroke-width="0.4"/>
<rect x="78" y="31" width="1" height="1" fill="#76ECF9"/>
<rect x="86" y="48" width="1" height="1" fill="#76ECF9"/>
<rect x="100" y="36" width="3" height="3" fill="#76ECF9"/>
<rect x="103" y="29" width="3" height="3" fill="#76ECF9"/>
<rect x="102" y="24" width="3" height="3" fill="#76ECF9"/>
<rect x="95" y="23" width="5" height="4" fill="#76ECF9"/>
<rect x="109" y="28" width="6" height="6" fill="#76ECF9"/>
<rect x="117" y="31" width="3" height="3" fill="#76ECF9"/>
<rect x="122" y="31" width="3" height="3" fill="#76ECF9"/>
<rect x="128" y="33" width="2" height="2" fill="#76ECF9"/>
<rect x="127" y="38" width="2" height="2" fill="#76ECF9"/>
<rect x="130" y="42" width="4" height="4" fill="#76ECF9"/>
<rect x="137" y="42" width="1" height="1" fill="#76ECF9"/>
<rect x="138" y="44" width="3" height="2" fill="#76ECF9"/>
<rect x="143" y="49" width="5" height="4" fill="#76ECF9"/>
<rect x="131" y="53" width="4" height="4" fill="#76ECF9"/>
<rect x="148" y="62" width="4" height="4" fill="#76ECF9"/>
<rect x="150" y="69" width="2" height="2" fill="#76ECF9"/>
<path d="M139 46V53H135" stroke="#BCF3FE" stroke-width="0.2"/>
<path d="M145 53V64" stroke="#BCF3FE" stroke-width="0.3"/>
<path d="M142 64H148" stroke="#BCF3FE" stroke-width="0.3"/>
<path d="M142 68V59H133V68H142Z" stroke="#BCF3FE" stroke-width="0.3"/>
<path d="M137.5 68V72H131.5" stroke="#BCF3FE" stroke-width="0.3"/>
<path d="M131.5 70V73.5H128.5" stroke="#BCF3FE" stroke-width="0.3"/>
<path d="M133 64H120.5" stroke="#BCF3FE" stroke-width="0.3"/>
<path d="M126.5 60.5V66.5" stroke="#BCF3FE" stroke-width="0.3"/>
<path d="M108 51H120V63H108V51Z" fill="#E4F9FC"/>
<path d="M118 49L118 61" stroke="#BCF3FE" stroke-width="0.7"/>
<path d="M114 49H122.5H123V40H114V49Z" stroke="#BCF3FE" stroke-width="0.7"/>
<path d="M123 44.5H126.5" stroke="#BCF3FE" stroke-width="0.7"/>
<path d="M126.5 44.5V50.5M126.5 50.5H124.5V54H128V50.5H126.5Z" stroke="#BCF3FE" stroke-width="0.4"/>
<path d="M118.5 34V39.5" stroke="#BCF3FE" stroke-width="0.4"/>
<path d="M110.5 59.5H115.5M108 35H104.5V38.5H108V35Z" stroke="#BCF3FE" stroke-width="0.3"/>
<path d="M113 56.5V62.5" stroke="#BCF3FE" stroke-width="0.4"/>
<rect x="92" y="43" width="12" height="12" fill="#76ECF9"/>
<rect x="120" y="51" width="2" height="3" fill="#76ECF9"/>
<path d="M135 55H151" stroke="#BCF3FE" stroke-width="0.4"/>
<g filter="url(#filter0_f_0_1)">
<circle cx="133.5" cy="32.5" r="1.5" fill="#76ECF9"/>
</g>
<g filter="url(#filter1_f_0_1)">
<path d="M68 28.5C68 29.3284 67.3284 30 66.5 30C65.6716 30 65 29.3284 65 28.5C65 27.6716 65.6716 27 66.5 27C67.3284 27 68 27.6716 68 28.5Z" fill="#E1EDEE"/>
<path d="M68 28.5C68 29.3284 67.3284 30 66.5 30C65.6716 30 65 29.3284 65 28.5C65 27.6716 65.6716 27 66.5 27C67.3284 27 68 27.6716 68 28.5Z" fill="#E1EDEE"/>
<path d="M68 28.5C68 29.3284 67.3284 30 66.5 30C65.6716 30 65 29.3284 65 28.5C65 27.6716 65.6716 27 66.5 27C67.3284 27 68 27.6716 68 28.5Z" fill="#E1EDEE"/>
<path d="M68 28.5C68 29.3284 67.3284 30 66.5 30C65.6716 30 65 29.3284 65 28.5C65 27.6716 65.6716 27 66.5 27C67.3284 27 68 27.6716 68 28.5Z" fill="#E1EDEE"/>
</g>
<g filter="url(#filter2_f_0_1)">
<path d="M39 75.5C39 76.3284 38.3284 77 37.5 77C36.6716 77 36 76.3284 36 75.5C36 74.6716 36.6716 74 37.5 74C38.3284 74 39 74.6716 39 75.5Z" fill="#E1EDEE"/>
<path d="M39 75.5C39 76.3284 38.3284 77 37.5 77C36.6716 77 36 76.3284 36 75.5C36 74.6716 36.6716 74 37.5 74C38.3284 74 39 74.6716 39 75.5Z" fill="#E1EDEE"/>
<path d="M39 75.5C39 76.3284 38.3284 77 37.5 77C36.6716 77 36 76.3284 36 75.5C36 74.6716 36.6716 74 37.5 74C38.3284 74 39 74.6716 39 75.5Z" fill="#E1EDEE"/>
<path d="M39 75.5C39 76.3284 38.3284 77 37.5 77C36.6716 77 36 76.3284 36 75.5C36 74.6716 36.6716 74 37.5 74C38.3284 74 39 74.6716 39 75.5Z" fill="#E1EDEE"/>
</g>
<g filter="url(#filter3_f_0_1)">
<path d="M51 90.5C51 91.3284 50.3284 92 49.5 92C48.6716 92 48 91.3284 48 90.5C48 89.6716 48.6716 89 49.5 89C50.3284 89 51 89.6716 51 90.5Z" fill="#E1EDEE"/>
<path d="M51 90.5C51 91.3284 50.3284 92 49.5 92C48.6716 92 48 91.3284 48 90.5C48 89.6716 48.6716 89 49.5 89C50.3284 89 51 89.6716 51 90.5Z" fill="#E1EDEE"/>
<path d="M51 90.5C51 91.3284 50.3284 92 49.5 92C48.6716 92 48 91.3284 48 90.5C48 89.6716 48.6716 89 49.5 89C50.3284 89 51 89.6716 51 90.5Z" fill="#E1EDEE"/>
<path d="M51 90.5C51 91.3284 50.3284 92 49.5 92C48.6716 92 48 91.3284 48 90.5C48 89.6716 48.6716 89 49.5 89C50.3284 89 51 89.6716 51 90.5Z" fill="#E1EDEE"/>
</g>
<g filter="url(#filter4_f_0_1)">
<path d="M89 105C89 106.105 88.1046 107 87 107C85.8954 107 85 106.105 85 105C85 103.895 85.8954 103 87 103C88.1046 103 89 103.895 89 105Z" fill="#E1EDEE"/>
<path d="M89 105C89 106.105 88.1046 107 87 107C85.8954 107 85 106.105 85 105C85 103.895 85.8954 103 87 103C88.1046 103 89 103.895 89 105Z" fill="#E1EDEE"/>
<path d="M89 105C89 106.105 88.1046 107 87 107C85.8954 107 85 106.105 85 105C85 103.895 85.8954 103 87 103C88.1046 103 89 103.895 89 105Z" fill="#E1EDEE"/>
<path d="M89 105C89 106.105 88.1046 107 87 107C85.8954 107 85 106.105 85 105C85 103.895 85.8954 103 87 103C88.1046 103 89 103.895 89 105Z" fill="#E1EDEE"/>
</g>
<g filter="url(#filter5_f_0_1)">
<path d="M105 102.5C105 103.881 103.881 105 102.5 105C101.119 105 100 103.881 100 102.5C100 101.119 101.119 100 102.5 100C103.881 100 105 101.119 105 102.5Z" fill="#E1EDEE"/>
<path d="M105 102.5C105 103.881 103.881 105 102.5 105C101.119 105 100 103.881 100 102.5C100 101.119 101.119 100 102.5 100C103.881 100 105 101.119 105 102.5Z" fill="#E1EDEE"/>
<path d="M105 102.5C105 103.881 103.881 105 102.5 105C101.119 105 100 103.881 100 102.5C100 101.119 101.119 100 102.5 100C103.881 100 105 101.119 105 102.5Z" fill="#E1EDEE"/>
<path d="M105 102.5C105 103.881 103.881 105 102.5 105C101.119 105 100 103.881 100 102.5C100 101.119 101.119 100 102.5 100C103.881 100 105 101.119 105 102.5Z" fill="#E1EDEE"/>
</g>
<g filter="url(#filter6_f_0_1)">
<path d="M120 113.5C120 114.328 119.328 115 118.5 115C117.672 115 117 114.328 117 113.5C117 112.672 117.672 112 118.5 112C119.328 112 120 112.672 120 113.5Z" fill="#E1EDEE"/>
<path d="M120 113.5C120 114.328 119.328 115 118.5 115C117.672 115 117 114.328 117 113.5C117 112.672 117.672 112 118.5 112C119.328 112 120 112.672 120 113.5Z" fill="#E1EDEE"/>
<path d="M120 113.5C120 114.328 119.328 115 118.5 115C117.672 115 117 114.328 117 113.5C117 112.672 117.672 112 118.5 112C119.328 112 120 112.672 120 113.5Z" fill="#E1EDEE"/>
<path d="M120 113.5C120 114.328 119.328 115 118.5 115C117.672 115 117 114.328 117 113.5C117 112.672 117.672 112 118.5 112C119.328 112 120 112.672 120 113.5Z" fill="#E1EDEE"/>
</g>
<g filter="url(#filter7_f_0_1)">
<path d="M128 114.5C128 115.328 127.328 116 126.5 116C125.672 116 125 115.328 125 114.5C125 113.672 125.672 113 126.5 113C127.328 113 128 113.672 128 114.5Z" fill="#E1EDEE"/>
<path d="M128 114.5C128 115.328 127.328 116 126.5 116C125.672 116 125 115.328 125 114.5C125 113.672 125.672 113 126.5 113C127.328 113 128 113.672 128 114.5Z" fill="#E1EDEE"/>
<path d="M128 114.5C128 115.328 127.328 116 126.5 116C125.672 116 125 115.328 125 114.5C125 113.672 125.672 113 126.5 113C127.328 113 128 113.672 128 114.5Z" fill="#E1EDEE"/>
<path d="M128 114.5C128 115.328 127.328 116 126.5 116C125.672 116 125 115.328 125 114.5C125 113.672 125.672 113 126.5 113C127.328 113 128 113.672 128 114.5Z" fill="#E1EDEE"/>
</g>
<g filter="url(#filter8_f_0_1)">
<path d="M125 102.5C125 103.328 124.328 104 123.5 104C122.672 104 122 103.328 122 102.5C122 101.672 122.672 101 123.5 101C124.328 101 125 101.672 125 102.5Z" fill="#E1EDEE"/>
<path d="M125 102.5C125 103.328 124.328 104 123.5 104C122.672 104 122 103.328 122 102.5C122 101.672 122.672 101 123.5 101C124.328 101 125 101.672 125 102.5Z" fill="#E1EDEE"/>
<path d="M125 102.5C125 103.328 124.328 104 123.5 104C122.672 104 122 103.328 122 102.5C122 101.672 122.672 101 123.5 101C124.328 101 125 101.672 125 102.5Z" fill="#E1EDEE"/>
<path d="M125 102.5C125 103.328 124.328 104 123.5 104C122.672 104 122 103.328 122 102.5C122 101.672 122.672 101 123.5 101C124.328 101 125 101.672 125 102.5Z" fill="#E1EDEE"/>
</g>
<g filter="url(#filter9_f_0_1)">
<path d="M127 96.5C127 97.3284 126.328 98 125.5 98C124.672 98 124 97.3284 124 96.5C124 95.6716 124.672 95 125.5 95C126.328 95 127 95.6716 127 96.5Z" fill="#E1EDEE"/>
<path d="M127 96.5C127 97.3284 126.328 98 125.5 98C124.672 98 124 97.3284 124 96.5C124 95.6716 124.672 95 125.5 95C126.328 95 127 95.6716 127 96.5Z" fill="#E1EDEE"/>
<path d="M127 96.5C127 97.3284 126.328 98 125.5 98C124.672 98 124 97.3284 124 96.5C124 95.6716 124.672 95 125.5 95C126.328 95 127 95.6716 127 96.5Z" fill="#E1EDEE"/>
<path d="M127 96.5C127 97.3284 126.328 98 125.5 98C124.672 98 124 97.3284 124 96.5C124 95.6716 124.672 95 125.5 95C126.328 95 127 95.6716 127 96.5Z" fill="#E1EDEE"/>
</g>
<g filter="url(#filter10_f_0_1)">
<path d="M140 97.5C140 98.3284 139.328 99 138.5 99C137.672 99 137 98.3284 137 97.5C137 96.6716 137.672 96 138.5 96C139.328 96 140 96.6716 140 97.5Z" fill="#E1EDEE"/>
<path d="M140 97.5C140 98.3284 139.328 99 138.5 99C137.672 99 137 98.3284 137 97.5C137 96.6716 137.672 96 138.5 96C139.328 96 140 96.6716 140 97.5Z" fill="#E1EDEE"/>
<path d="M140 97.5C140 98.3284 139.328 99 138.5 99C137.672 99 137 98.3284 137 97.5C137 96.6716 137.672 96 138.5 96C139.328 96 140 96.6716 140 97.5Z" fill="#E1EDEE"/>
<path d="M140 97.5C140 98.3284 139.328 99 138.5 99C137.672 99 137 98.3284 137 97.5C137 96.6716 137.672 96 138.5 96C139.328 96 140 96.6716 140 97.5Z" fill="#E1EDEE"/>
</g>
<g filter="url(#filter11_f_0_1)">
<path d="M144 92.5C144 93.3284 143.328 94 142.5 94C141.672 94 141 93.3284 141 92.5C141 91.6716 141.672 91 142.5 91C143.328 91 144 91.6716 144 92.5Z" fill="#E1EDEE"/>
<path d="M144 92.5C144 93.3284 143.328 94 142.5 94C141.672 94 141 93.3284 141 92.5C141 91.6716 141.672 91 142.5 91C143.328 91 144 91.6716 144 92.5Z" fill="#E1EDEE"/>
<path d="M144 92.5C144 93.3284 143.328 94 142.5 94C141.672 94 141 93.3284 141 92.5C141 91.6716 141.672 91 142.5 91C143.328 91 144 91.6716 144 92.5Z" fill="#E1EDEE"/>
<path d="M144 92.5C144 93.3284 143.328 94 142.5 94C141.672 94 141 93.3284 141 92.5C141 91.6716 141.672 91 142.5 91C143.328 91 144 91.6716 144 92.5Z" fill="#E1EDEE"/>
</g>
<g filter="url(#filter12_f_0_1)">
<path d="M151 92.5C151 93.3284 150.328 94 149.5 94C148.672 94 148 93.3284 148 92.5C148 91.6716 148.672 91 149.5 91C150.328 91 151 91.6716 151 92.5Z" fill="#E1EDEE"/>
<path d="M151 92.5C151 93.3284 150.328 94 149.5 94C148.672 94 148 93.3284 148 92.5C148 91.6716 148.672 91 149.5 91C150.328 91 151 91.6716 151 92.5Z" fill="#E1EDEE"/>
<path d="M151 92.5C151 93.3284 150.328 94 149.5 94C148.672 94 148 93.3284 148 92.5C148 91.6716 148.672 91 149.5 91C150.328 91 151 91.6716 151 92.5Z" fill="#E1EDEE"/>
<path d="M151 92.5C151 93.3284 150.328 94 149.5 94C148.672 94 148 93.3284 148 92.5C148 91.6716 148.672 91 149.5 91C150.328 91 151 91.6716 151 92.5Z" fill="#E1EDEE"/>
</g>
<g filter="url(#filter13_f_0_1)">
<path d="M158 73.5C158 74.3284 157.328 75 156.5 75C155.672 75 155 74.3284 155 73.5C155 72.6716 155.672 72 156.5 72C157.328 72 158 72.6716 158 73.5Z" fill="#E1EDEE"/>
<path d="M158 73.5C158 74.3284 157.328 75 156.5 75C155.672 75 155 74.3284 155 73.5C155 72.6716 155.672 72 156.5 72C157.328 72 158 72.6716 158 73.5Z" fill="#E1EDEE"/>
<path d="M158 73.5C158 74.3284 157.328 75 156.5 75C155.672 75 155 74.3284 155 73.5C155 72.6716 155.672 72 156.5 72C157.328 72 158 72.6716 158 73.5Z" fill="#E1EDEE"/>
<path d="M158 73.5C158 74.3284 157.328 75 156.5 75C155.672 75 155 74.3284 155 73.5C155 72.6716 155.672 72 156.5 72C157.328 72 158 72.6716 158 73.5Z" fill="#E1EDEE"/>
</g>
<g filter="url(#filter14_f_0_1)">
<path d="M152 52.5C152 53.3284 151.328 54 150.5 54C149.672 54 149 53.3284 149 52.5C149 51.6716 149.672 51 150.5 51C151.328 51 152 51.6716 152 52.5Z" fill="#E1EDEE"/>
<path d="M152 52.5C152 53.3284 151.328 54 150.5 54C149.672 54 149 53.3284 149 52.5C149 51.6716 149.672 51 150.5 51C151.328 51 152 51.6716 152 52.5Z" fill="#E1EDEE"/>
<path d="M152 52.5C152 53.3284 151.328 54 150.5 54C149.672 54 149 53.3284 149 52.5C149 51.6716 149.672 51 150.5 51C151.328 51 152 51.6716 152 52.5Z" fill="#E1EDEE"/>
<path d="M152 52.5C152 53.3284 151.328 54 150.5 54C149.672 54 149 53.3284 149 52.5C149 51.6716 149.672 51 150.5 51C151.328 51 152 51.6716 152 52.5Z" fill="#E1EDEE"/>
</g>
<g filter="url(#filter15_f_0_1)">
<path d="M71 94C71 95.6569 69.6569 97 68 97C66.3431 97 65 95.6569 65 94C65 92.3431 66.3431 91 68 91C69.6569 91 71 92.3431 71 94Z" fill="#E1EDEE"/>
<path d="M71 94C71 95.6569 69.6569 97 68 97C66.3431 97 65 95.6569 65 94C65 92.3431 66.3431 91 68 91C69.6569 91 71 92.3431 71 94Z" fill="#E1EDEE"/>
<path d="M71 94C71 95.6569 69.6569 97 68 97C66.3431 97 65 95.6569 65 94C65 92.3431 66.3431 91 68 91C69.6569 91 71 92.3431 71 94Z" fill="#E1EDEE"/>
<path d="M71 94C71 95.6569 69.6569 97 68 97C66.3431 97 65 95.6569 65 94C65 92.3431 66.3431 91 68 91C69.6569 91 71 92.3431 71 94Z" fill="#E1EDEE"/>
</g>
<g filter="url(#filter16_f_0_1)">
<path d="M44 49C44 50.1046 43.1046 51 42 51C40.8954 51 40 50.1046 40 49C40 47.8954 40.8954 47 42 47C43.1046 47 44 47.8954 44 49Z" fill="#E1EDEE"/>
<path d="M44 49C44 50.1046 43.1046 51 42 51C40.8954 51 40 50.1046 40 49C40 47.8954 40.8954 47 42 47C43.1046 47 44 47.8954 44 49Z" fill="#7DCFD8"/>
<path d="M44 49C44 50.1046 43.1046 51 42 51C40.8954 51 40 50.1046 40 49C40 47.8954 40.8954 47 42 47C43.1046 47 44 47.8954 44 49Z" fill="#E1EDEE"/>
<path d="M44 49C44 50.1046 43.1046 51 42 51C40.8954 51 40 50.1046 40 49C40 47.8954 40.8954 47 42 47C43.1046 47 44 47.8954 44 49Z" fill="#7DCFD8"/>
</g>
<g filter="url(#filter17_f_0_1)">
<path d="M100 21.5C100 22.3284 99.3284 23 98.5 23C97.6716 23 97 22.3284 97 21.5C97 20.6716 97.6716 20 98.5 20C99.3284 20 100 20.6716 100 21.5Z" fill="#E1EDEE"/>
<path d="M100 21.5C100 22.3284 99.3284 23 98.5 23C97.6716 23 97 22.3284 97 21.5C97 20.6716 97.6716 20 98.5 20C99.3284 20 100 20.6716 100 21.5Z" fill="#E1EDEE"/>
<path d="M100 21.5C100 22.3284 99.3284 23 98.5 23C97.6716 23 97 22.3284 97 21.5C97 20.6716 97.6716 20 98.5 20C99.3284 20 100 20.6716 100 21.5Z" fill="#E1EDEE"/>
<path d="M100 21.5C100 22.3284 99.3284 23 98.5 23C97.6716 23 97 22.3284 97 21.5C97 20.6716 97.6716 20 98.5 20C99.3284 20 100 20.6716 100 21.5Z" fill="#E1EDEE"/>
</g>
<path d="M45 63V59H49.5V63H45Z" stroke="#BCF3FE" stroke-width="0.4"/>
<path d="M48.5 73H43.5V77.5H48.5V73Z" stroke="#BCF3FE" stroke-width="0.4"/>
<rect x="40" y="74" width="1" height="1" fill="#76ECF9"/>
<rect x="49" y="78" width="2" height="2" fill="#76ECF9"/>
<rect x="47" y="81" width="3" height="3" fill="#76ECF9"/>
<rect x="50" y="84" width="1" height="1" fill="#76ECF9"/>
<rect x="58" y="85" width="2" height="2" fill="#76ECF9"/>
<rect x="63" y="81" width="2" height="2" fill="#76ECF9"/>
<rect x="62" y="88" width="2" height="2" fill="#76ECF9"/>
<rect x="83" y="73" width="6" height="6" fill="#BCF5FC"/>
<rect x="84" y="85" width="4" height="4" fill="#BCF5FC"/>
<rect x="68" y="88" width="6" height="6" fill="#DFFAFD"/>
<rect x="88" y="91" width="2" height="2" fill="#BCF5FC"/>
<rect x="91" y="89" width="2" height="2" fill="#BCF5FC"/>
<rect x="96" y="89" width="6" height="6" fill="#DCFBFF"/>
<path d="M96 67.5V61.5H102V67.5H96Z" stroke="#BCF3FE" stroke-width="0.4"/>
<path d="M99 67.5V89" stroke="#BCF3FE" stroke-width="0.5"/>
<path d="M89 76H106" stroke="#BCF3FE" stroke-width="0.7"/>
<rect x="106" y="71" width="10" height="9" fill="#BCF5FC"/>
<path d="M81 71.5H98" stroke="#BCF3FE" stroke-width="0.5"/>
<path d="M118.5 65V91.5" stroke="#BCF3FE" stroke-width="0.5"/>
<path d="M116 75.5H121.5" stroke="#BCF3FE" stroke-width="0.5"/>
<rect x="121" y="74" width="4" height="4" fill="#BCF5FC"/>
<path d="M125 75.5H155" stroke="#BCF3FE" stroke-width="0.5"/>
<path d="M137.5 75.5V96" stroke="#BCF3FE" stroke-width="0.6"/>
<rect x="122" y="79" width="6" height="6" fill="#BCF5FC"/>
<rect x="130" y="84" width="2" height="2" fill="#BCF5FC"/>
<rect x="125" y="87" width="2" height="2" fill="#BCF5FC"/>
<rect x="134" y="88" width="2" height="2" fill="#BCF5FC"/>
<rect x="128" y="91" width="2" height="2" fill="#BCF5FC"/>
<rect x="113" y="86" width="2" height="2" fill="#BCF5FC"/>
<path d="M104.5 80.5H117" stroke="#BCF3FE" stroke-width="0.2"/>
<path d="M111 80.5V84.5" stroke="#BCF3FE" stroke-width="0.2"/>
<path d="M111 83.5H105V82H101.5V85.5" stroke="#BCF3FE" stroke-width="0.2"/>
<path d="M90 87H107.5" stroke="#BCF3FE" stroke-width="0.2"/>
<rect x="106" y="92" width="3" height="3" fill="#BCF5FC"/>
<rect x="114" y="92" width="9" height="9" fill="#BCF5FC"/>
<rect x="144" y="79" width="5" height="5" fill="#BCF5FC"/>
<rect x="150" y="77" width="2" height="2" fill="#D5FAFF"/>
<rect x="146" y="86" width="3" height="3" fill="#BCF5FC"/>
<rect x="118" y="108" width="3" height="3" fill="#BCF5FC"/>
<rect x="113" y="105" width="2" height="2" fill="#BCF5FC"/>
<rect x="90" y="97" width="6" height="5" fill="#BCF5FC"/>
<rect x="81" y="98" width="2" height="2" fill="#D1FAFF"/>
<rect x="82" y="92" width="7" height="6" fill="#BCF5FC"/>
<defs>
<filter id="filter0_f_0_1" x="131" y="30" width="5" height="5" filterUnits="userSpaceOnUse" color-interpolation-filters="sRGB">
<feFlood flood-opacity="0" result="BackgroundImageFix"/>
<feBlend mode="normal" in="SourceGraphic" in2="BackgroundImageFix" result="shape"/>
<feGaussianBlur stdDeviation="0.5" result="effect1_foregroundBlur_0_1"/>
</filter>
<filter id="filter1_f_0_1" x="63" y="25" width="7" height="7" filterUnits="userSpaceOnUse" color-interpolation-filters="sRGB">
<feFlood flood-opacity="0" result="BackgroundImageFix"/>
<feBlend mode="normal" in="SourceGraphic" in2="BackgroundImageFix" result="shape"/>
<feGaussianBlur stdDeviation="1" result="effect1_foregroundBlur_0_1"/>
</filter>
<filter id="filter2_f_0_1" x="35" y="73" width="5" height="5" filterUnits="userSpaceOnUse" color-interpolation-filters="sRGB">
<feFlood flood-opacity="0" result="BackgroundImageFix"/>
<feBlend mode="normal" in="SourceGraphic" in2="BackgroundImageFix" result="shape"/>
<feGaussianBlur stdDeviation="0.5" result="effect1_foregroundBlur_0_1"/>
</filter>
<filter id="filter3_f_0_1" x="47" y="88" width="5" height="5" filterUnits="userSpaceOnUse" color-interpolation-filters="sRGB">
<feFlood flood-opacity="0" result="BackgroundImageFix"/>
<feBlend mode="normal" in="SourceGraphic" in2="BackgroundImageFix" result="shape"/>
<feGaussianBlur stdDeviation="0.5" result="effect1_foregroundBlur_0_1"/>
</filter>
<filter id="filter4_f_0_1" x="84" y="102" width="6" height="6" filterUnits="userSpaceOnUse" color-interpolation-filters="sRGB">
<feFlood flood-opacity="0" result="BackgroundImageFix"/>
<feBlend mode="normal" in="SourceGraphic" in2="BackgroundImageFix" result="shape"/>
<feGaussianBlur stdDeviation="0.5" result="effect1_foregroundBlur_0_1"/>
</filter>
<filter id="filter5_f_0_1" x="98" y="98" width="9" height="9" filterUnits="userSpaceOnUse" color-interpolation-filters="sRGB">
<feFlood flood-opacity="0" result="BackgroundImageFix"/>
<feBlend mode="normal" in="SourceGraphic" in2="BackgroundImageFix" result="shape"/>
<feGaussianBlur stdDeviation="1" result="effect1_foregroundBlur_0_1"/>
</filter>
<filter id="filter6_f_0_1" x="116" y="111" width="5" height="5" filterUnits="userSpaceOnUse" color-interpolation-filters="sRGB">
<feFlood flood-opacity="0" result="BackgroundImageFix"/>
<feBlend mode="normal" in="SourceGraphic" in2="BackgroundImageFix" result="shape"/>
<feGaussianBlur stdDeviation="0.5" result="effect1_foregroundBlur_0_1"/>
</filter>
<filter id="filter7_f_0_1" x="124" y="112" width="5" height="5" filterUnits="userSpaceOnUse" color-interpolation-filters="sRGB">
<feFlood flood-opacity="0" result="BackgroundImageFix"/>
<feBlend mode="normal" in="SourceGraphic" in2="BackgroundImageFix" result="shape"/>
<feGaussianBlur stdDeviation="0.5" result="effect1_foregroundBlur_0_1"/>
</filter>
<filter id="filter8_f_0_1" x="121" y="100" width="5" height="5" filterUnits="userSpaceOnUse" color-interpolation-filters="sRGB">
<feFlood flood-opacity="0" result="BackgroundImageFix"/>
<feBlend mode="normal" in="SourceGraphic" in2="BackgroundImageFix" result="shape"/>
<feGaussianBlur stdDeviation="0.5" result="effect1_foregroundBlur_0_1"/>
</filter>
<filter id="filter9_f_0_1" x="123" y="94" width="5" height="5" filterUnits="userSpaceOnUse" color-interpolation-filters="sRGB">
<feFlood flood-opacity="0" result="BackgroundImageFix"/>
<feBlend mode="normal" in="SourceGraphic" in2="BackgroundImageFix" result="shape"/>
<feGaussianBlur stdDeviation="0.5" result="effect1_foregroundBlur_0_1"/>
</filter>
<filter id="filter10_f_0_1" x="136" y="95" width="5" height="5" filterUnits="userSpaceOnUse" color-interpolation-filters="sRGB">
<feFlood flood-opacity="0" result="BackgroundImageFix"/>
<feBlend mode="normal" in="SourceGraphic" in2="BackgroundImageFix" result="shape"/>
<feGaussianBlur stdDeviation="0.5" result="effect1_foregroundBlur_0_1"/>
</filter>
<filter id="filter11_f_0_1" x="140" y="90" width="5" height="5" filterUnits="userSpaceOnUse" color-interpolation-filters="sRGB">
<feFlood flood-opacity="0" result="BackgroundImageFix"/>
<feBlend mode="normal" in="SourceGraphic" in2="BackgroundImageFix" result="shape"/>
<feGaussianBlur stdDeviation="0.5" result="effect1_foregroundBlur_0_1"/>
</filter>
<filter id="filter12_f_0_1" x="147" y="90" width="5" height="5" filterUnits="userSpaceOnUse" color-interpolation-filters="sRGB">
<feFlood flood-opacity="0" result="BackgroundImageFix"/>
<feBlend mode="normal" in="SourceGraphic" in2="BackgroundImageFix" result="shape"/>
<feGaussianBlur stdDeviation="0.5" result="effect1_foregroundBlur_0_1"/>
</filter>
<filter id="filter13_f_0_1" x="154" y="71" width="5" height="5" filterUnits="userSpaceOnUse" color-interpolation-filters="sRGB">
<feFlood flood-opacity="0" result="BackgroundImageFix"/>
<feBlend mode="normal" in="SourceGraphic" in2="BackgroundImageFix" result="shape"/>
<feGaussianBlur stdDeviation="0.5" result="effect1_foregroundBlur_0_1"/>
</filter>
<filter id="filter14_f_0_1" x="148" y="50" width="5" height="5" filterUnits="userSpaceOnUse" color-interpolation-filters="sRGB">
<feFlood flood-opacity="0" result="BackgroundImageFix"/>
<feBlend mode="normal" in="SourceGraphic" in2="BackgroundImageFix" result="shape"/>
<feGaussianBlur stdDeviation="0.5" result="effect1_foregroundBlur_0_1"/>
</filter>
<filter id="filter15_f_0_1" x="63" y="89" width="10" height="10" filterUnits="userSpaceOnUse" color-interpolation-filters="sRGB">
<feFlood flood-opacity="0" result="BackgroundImageFix"/>
<feBlend mode="normal" in="SourceGraphic" in2="BackgroundImageFix" result="shape"/>
<feGaussianBlur stdDeviation="1" result="effect1_foregroundBlur_0_1"/>
</filter>
<filter id="filter16_f_0_1" x="38" y="45" width="8" height="8" filterUnits="userSpaceOnUse" color-interpolation-filters="sRGB">
<feFlood flood-opacity="0" result="BackgroundImageFix"/>
<feBlend mode="normal" in="SourceGraphic" in2="BackgroundImageFix" result="shape"/>
<feGaussianBlur stdDeviation="1" result="effect1_foregroundBlur_0_1"/>
</filter>
<filter id="filter17_f_0_1" x="95" y="18" width="7" height="7" filterUnits="userSpaceOnUse" color-interpolation-filters="sRGB">
<feFlood flood-opacity="0" result="BackgroundImageFix"/>
<feBlend mode="normal" in="SourceGraphic" in2="BackgroundImageFix" result="shape"/>
<feGaussianBlur stdDeviation="1" result="effect1_foregroundBlur_0_1"/>
</filter>
<linearGradient id="paint0_linear_0_1" x1="6" y1="113.5" x2="168" y2="73.5" gradientUnits="userSpaceOnUse">
<stop offset="0.182292" stop-color="#7731AD"/>
<stop offset="1" stop-color="#1EA2BA" stop-opacity="0.98"/>
</linearGradient>
</defs>
</svg>
